<svg width="22" height="27" viewBox="0 0 22 27" fill="none" xmlns="http://www.w3.org/2000/svg">
<path d="M18.3422 25.9209C16.9261 27.3411 15.3636 27.1197 13.8743 26.4501C12.2909 25.767 10.8434 25.7238 9.17119 26.4501C7.08876 27.3789 5.98354 27.1089 4.72938 25.9209C-2.35137 18.3879 -1.30624 6.91292 6.74126 6.48092C8.69304 6.58892 10.0595 7.59602 11.2092 7.67972C12.918 7.32062 14.5536 6.29192 16.3826 6.42692C18.58 6.61052 20.2234 7.50692 21.3208 9.11882C16.8006 11.9268 17.8719 18.0828 22.0237 19.8108C21.1928 22.0653 20.1268 24.2928 18.3396 25.9398L18.3422 25.9209ZM11.0524 6.39992C10.8408 3.05192 13.4667 0.297923 16.4871 0.0279236C16.9025 3.88892 13.0904 6.77792 11.0524 6.39992Z" fill="#262626"/>
</svg>
