<svg width="134" height="133" viewBox="0 0 134 133" fill="none" xmlns="http://www.w3.org/2000/svg">
<path d="M134 128.406C134 130.742 104.005 132.647 67.0163 132.647C30.0272 132.647 0 130.742 0 128.406C0 126.071 29.9947 124.166 66.9838 124.166C103.973 124.166 134 126.071 134 128.406Z" fill="#E1E1E1"/>
<path d="M127.215 51.0933C127.215 20.1924 99.2879 -4.24398 67.4819 1.70349C47.4415 5.45298 31.4092 22.0025 27.9183 42.1721C25.7203 54.8428 28.3062 66.6085 33.995 76.4347L34.1243 76.564C36.0637 79.7963 38.391 82.1236 40.8476 85.4852L69.9385 124.144C73.5587 128.928 80.799 128.928 84.4192 124.144L112.993 86.1317C112.993 86.1317 118.294 79.7964 120.233 76.4347L120.363 76.3054C124.629 69.065 127.215 60.4024 127.215 51.0933Z" fill="#FFBD31"/>
<path d="M77.0483 81.4771C93.5432 81.4771 106.915 68.0475 106.915 51.4812C106.915 34.9149 93.5432 21.4852 77.0483 21.4852C60.5534 21.4852 47.1816 34.9149 47.1816 51.4812C47.1816 68.0475 60.5534 81.4771 77.0483 81.4771Z" fill="white"/>
<path d="M77.0486 81.4771C77.0486 81.2185 79.7637 81.4771 84.289 80.1842C88.8142 79.0205 95.2789 75.9175 100.321 69.1943C102.778 65.8327 104.847 61.6953 105.752 56.7822C106.527 51.9983 106.398 46.568 104.459 41.3963C103.554 38.8105 102.131 36.3539 100.451 34.0266C98.7698 31.6994 96.7011 29.6307 94.2445 27.8206C89.4607 24.2004 83.3839 22.1317 77.0486 22.1317C70.7132 22.1317 64.6365 24.2004 59.8526 27.8206C57.3961 29.5014 55.3274 31.6994 53.6466 34.0266C51.9658 36.3539 50.5436 38.8105 49.6385 41.3963C47.6991 46.568 47.5698 51.9983 48.3456 56.7822C49.1213 61.566 51.3193 65.8327 53.7759 69.1943C58.8183 75.9175 65.4122 79.0205 69.8082 80.1842C74.4627 81.4771 77.1779 81.3478 77.0486 81.4771C77.0486 81.4771 74.3334 81.865 69.6789 80.8306C65.0243 79.7963 58.1718 76.8226 52.8708 69.97C50.285 66.4791 47.9577 62.2125 47.0526 57.17C46.1476 52.1276 46.2769 46.4387 48.3456 41.0084C49.2506 38.2933 50.6729 35.7074 52.483 33.2509C54.2931 30.7943 56.491 28.5963 58.9476 26.7862C63.99 23.0367 70.4547 20.8388 77.0486 20.7095C83.7718 20.7095 90.2365 22.9074 95.1496 26.7862C97.7354 28.5963 99.9334 30.7943 101.614 33.2509C103.424 35.7074 104.847 38.2933 105.752 41.0084C107.82 46.4387 107.95 52.1276 107.045 57.17C106.139 62.2125 103.812 66.6084 101.226 69.97C95.796 76.9519 88.9435 79.7963 84.4183 80.8306C79.7637 81.865 77.0486 81.4771 77.0486 81.4771Z" fill="#262626"/>
<path d="M31.9696 115.811C32.622 116.072 33.0787 116.691 33.307 117.344C33.5354 117.996 33.568 118.714 33.4701 119.399C33.307 120.736 32.5567 122.074 31.7412 123.15C30.6321 122.172 30.3711 120.475 30.2732 119.595C30.1754 118.159 30.7952 115.582 31.9696 115.811Z" fill="#FFBD31"/>
<path d="M33.0466 125.336C32.8509 124.586 33.1771 123.77 33.7643 123.248C34.3515 122.726 35.167 122.531 35.9173 122.563C36.2762 122.596 36.6676 122.694 36.8634 122.987C37.0591 123.248 37.0265 123.64 36.8634 123.933C36.7003 124.227 36.4393 124.455 36.1457 124.618C35.2323 125.238 34.1558 125.662 33.0466 125.336Z" fill="#FFBD31"/>
<path d="M31.6104 129.414C31.6104 129.414 31.6104 129.316 31.643 129.153C31.6756 128.957 31.7082 128.696 31.7735 128.402C31.9039 127.783 32.0671 126.902 32.5238 126.021C33.0131 125.173 33.6655 124.52 34.2201 124.227C34.5137 124.064 34.742 123.966 34.9051 123.933C35.003 123.901 35.0682 123.901 35.1008 123.868C35.1335 123.868 35.1661 123.868 35.1661 123.868C35.1661 123.901 34.7746 123.966 34.2527 124.292C33.6981 124.618 33.0783 125.238 32.589 126.086C32.1323 126.934 31.9366 127.815 31.8061 128.435C31.7408 128.761 31.6756 128.99 31.643 129.185C31.643 129.316 31.6104 129.414 31.6104 129.414Z" fill="#FFBD31"/>
<path d="M31.6762 117.801C31.6762 117.801 31.6762 117.833 31.6762 117.931C31.6762 118.029 31.6762 118.127 31.7088 118.29C31.7088 118.583 31.7414 119.008 31.774 119.562C31.8067 120.639 31.8393 122.107 31.8393 123.738C31.8393 125.369 31.8067 126.837 31.7414 127.913C31.7088 128.435 31.7088 128.892 31.6762 129.185C31.6762 129.316 31.6436 129.446 31.6436 129.544C31.6436 129.61 31.6436 129.675 31.6436 129.675C31.6436 129.675 31.6436 129.642 31.6436 129.544C31.6436 129.446 31.6436 129.349 31.6436 129.185C31.6436 128.859 31.6762 128.435 31.6762 127.913C31.7088 126.837 31.7414 125.369 31.7414 123.738C31.7414 122.107 31.7414 120.639 31.7088 119.562C31.7088 119.04 31.7088 118.616 31.6762 118.29C31.6762 118.159 31.6762 118.029 31.6762 117.931C31.6436 117.833 31.6436 117.801 31.6762 117.801Z" fill="#FFBD31"/>
<path d="M31.1216 126.152C30.8606 124.553 29.7841 123.085 28.3162 122.367C27.9247 122.172 27.4354 122.074 27.1418 122.335C26.8482 122.628 26.9134 123.118 27.0439 123.509C27.6637 125.14 29.3601 126.282 31.089 126.249" fill="#FFBD31"/>
<path d="M28.479 123.64C28.479 123.64 28.5769 123.672 28.7074 123.738C28.7726 123.77 28.8705 123.803 28.9683 123.868C29.0662 123.933 29.1967 123.999 29.3272 124.096C29.4576 124.194 29.5881 124.26 29.7186 124.39C29.8491 124.488 29.9796 124.618 30.1427 124.782C30.4037 125.075 30.6973 125.401 30.9256 125.793C31.154 126.184 31.3171 126.608 31.4476 126.967C31.5128 127.163 31.5454 127.326 31.578 127.522C31.6107 127.685 31.6433 127.848 31.6433 128.011C31.6759 128.174 31.6433 128.305 31.6759 128.403C31.6759 128.533 31.6759 128.631 31.6759 128.696C31.6759 128.859 31.6433 128.957 31.6433 128.957C31.6107 128.957 31.6433 128.598 31.578 128.011C31.5454 127.848 31.5454 127.717 31.5128 127.522C31.4802 127.359 31.4149 127.163 31.3823 127C31.2518 126.641 31.0887 126.217 30.8604 125.825C30.632 125.434 30.371 125.108 30.0775 124.814C29.947 124.684 29.8165 124.553 29.686 124.423C29.5555 124.292 29.425 124.227 29.2945 124.129C28.8052 123.803 28.479 123.64 28.479 123.64Z" fill="#FFBD31"/>
<path d="M32.1 83.3849C32.1 83.3849 35.3622 101.098 34.4162 104.785C33.6332 107.851 15.6262 121.78 15.6262 121.78L13.147 119.236C13.147 119.236 18.2359 113.592 20.7478 108.406C22.4441 104.915 26.7175 102.175 26.7175 102.175L21.5959 86.3534L32.1 83.3849Z" fill="#CC725A"/>
<path d="M27.2066 104.36C26.8804 103.153 26.5215 101.979 26.1953 100.772L27.2066 104.36Z" fill="#CC725A"/>
<path d="M26.1622 100.772C26.1296 100.772 26.3254 101.588 26.5863 102.599C26.8799 103.578 27.1409 104.393 27.1735 104.36C27.2061 104.36 27.0104 103.545 26.7494 102.534C26.4885 101.555 26.2275 100.772 26.1622 100.772Z" fill="#844031"/>
<path d="M17.093 122.433L16.832 122.661C16.832 122.661 19.0829 128.468 18.3326 129.283L10.5034 120.867L13.4067 118.388C13.9939 120.149 15.1683 121.519 17.093 122.433Z" fill="#455A64"/>
<g opacity="0.6">
<g opacity="0.6">
<g opacity="0.6">
<g opacity="0.6">
<g opacity="0.6">
<g opacity="0.6">
<g opacity="0.6">
<g opacity="0.6">
<g opacity="0.6">
<g opacity="0.6">
<g opacity="0.6">
<g opacity="0.6">
<g opacity="0.6">
<g opacity="0.6">
<g opacity="0.6">
<g opacity="0.6">
<g opacity="0.6">
<g opacity="0.6">
<path opacity="0.6" d="M13.3093 120.052C13.1135 119.921 12.82 119.986 12.6895 120.182C12.559 120.378 12.6242 120.671 12.82 120.802C13.0157 120.932 13.3745 120.867 13.4724 120.671C13.5702 120.476 13.505 120.117 13.2767 120.052" fill="white"/>
</g>
</g>
</g>
</g>
</g>
</g>
</g>
</g>
</g>
</g>
</g>
</g>
</g>
</g>
</g>
</g>
</g>
</g>
<g opacity="0.6">
<g opacity="0.6">
<g opacity="0.6">
<g opacity="0.6">
<g opacity="0.6">
<g opacity="0.6">
<g opacity="0.6">
<g opacity="0.6">
<g opacity="0.6">
<g opacity="0.6">
<g opacity="0.6">
<g opacity="0.6">
<g opacity="0.6">
<g opacity="0.6">
<g opacity="0.6">
<g opacity="0.6">
<g opacity="0.6">
<path opacity="0.6" d="M10.5039 120.834L11.189 120.247L18.4635 128.533C18.4635 128.533 18.6593 129.055 18.3331 129.251L10.5039 120.834Z" fill="white"/>
</g>
</g>
</g>
</g>
</g>
</g>
</g>
</g>
</g>
</g>
</g>
</g>
</g>
</g>
</g>
</g>
</g>
<path d="M16.8315 122.726C16.7989 122.759 16.5706 122.563 16.2444 122.498C15.9181 122.4 15.6572 122.465 15.6245 122.433C15.5919 122.4 15.8855 122.204 16.277 122.335C16.7011 122.4 16.8642 122.694 16.8315 122.726Z" fill="#262626"/>
<path d="M17.2889 123.934C17.2563 123.966 17.0279 123.868 16.7343 123.901C16.4407 123.901 16.2124 124.064 16.1798 123.999C16.1472 123.966 16.3429 123.705 16.7343 123.705C17.0932 123.673 17.3215 123.901 17.2889 123.934Z" fill="#262626"/>
<path d="M16.7012 125.434C16.6685 125.401 16.799 125.14 17.1252 125.043C17.4514 124.945 17.7124 125.043 17.7124 125.108C17.7124 125.173 17.4514 125.14 17.1905 125.238C16.9295 125.304 16.7338 125.467 16.7012 125.434Z" fill="#262626"/>
<path d="M21.3992 85.8319L21.0403 103.186L19.3766 127.424H15.1359C15.1359 127.424 13.2438 116.105 13.3091 110.167C13.4069 104.23 13.3417 102.077 13.3091 101.327C13.2764 100.609 11.2213 92.6498 10.7646 86.7127C10.3079 80.7755 13.3091 79.2097 13.3091 79.2097L21.3992 85.8319Z" fill="#CC725A"/>
<path d="M21.3995 85.8315C21.3995 85.8315 21.3669 85.7988 21.269 85.701C21.1712 85.6357 21.0407 85.5053 20.8776 85.3748C20.5188 85.0812 19.9968 84.6245 19.3118 84.0699C17.9417 82.9282 15.9191 81.2645 13.3747 79.1441L13.342 79.1115H13.3094C12.7875 79.4377 12.3634 79.8944 12.0046 80.4163C11.6457 80.9383 11.3521 81.5581 11.1564 82.2105C10.7649 83.5153 10.6345 85.0159 10.7323 86.5165C10.9607 89.5829 11.5478 92.9103 12.2655 96.4334C12.4613 97.3142 12.657 98.2276 12.8527 99.141C12.9506 99.5977 13.0484 100.054 13.1463 100.511C13.1789 100.739 13.2442 100.968 13.2768 101.196C13.3094 101.425 13.3094 101.685 13.3094 101.914C13.342 103.839 13.342 105.828 13.3094 107.851C13.3094 108.862 13.2768 109.873 13.2768 110.917C13.2768 111.439 13.3094 111.961 13.3094 112.483C13.342 113.005 13.3747 113.527 13.4073 114.049C13.5704 116.169 13.7987 118.29 14.0597 120.443C14.3533 122.792 14.6795 125.075 15.071 127.326V127.391H15.1362C16.5716 127.391 17.9743 127.391 19.377 127.391H19.4422V127.326C19.8337 121.389 20.2252 115.811 20.5514 110.82C20.7145 108.308 20.8776 105.959 21.0407 103.741C21.0733 103.186 21.1059 102.664 21.1059 102.11C21.1059 101.588 21.1386 101.066 21.1386 100.544C21.1712 99.5325 21.1712 98.5538 21.2038 97.6078C21.269 93.889 21.3343 90.9204 21.3669 88.8653C21.3669 87.854 21.3995 87.0711 21.3995 86.5165C21.3995 86.2555 21.3995 86.0598 21.3995 85.8967V85.8315C21.3995 85.8315 21.3995 85.8967 21.3995 86.0272C21.3995 86.1577 21.3995 86.386 21.3669 86.647C21.3669 87.2016 21.3343 87.9845 21.3017 88.9958C21.269 91.0509 21.1712 94.0195 21.1059 97.7383C21.0733 98.6517 21.0733 99.6303 21.0407 100.674C21.0407 101.196 21.0081 101.718 21.0081 102.24C21.0081 102.762 20.9754 103.317 20.9428 103.871C20.7797 106.089 20.6166 108.438 20.4535 110.95C20.0947 115.974 19.7358 121.519 19.3118 127.456L19.377 127.391C17.9743 127.391 16.5716 127.391 15.1362 127.391L15.2015 127.456C14.8426 125.206 14.4838 122.922 14.1902 120.573C13.9292 118.42 13.6682 116.267 13.5378 114.18C13.5051 113.658 13.4725 113.136 13.4399 112.614C13.4399 112.092 13.3747 111.57 13.4073 111.048C13.4073 110.004 13.4399 108.993 13.4399 107.981C13.4725 105.959 13.4725 103.969 13.4399 102.044C13.4399 101.816 13.4399 101.555 13.4073 101.327C13.3747 101.066 13.3094 100.837 13.2768 100.609C13.1789 100.152 13.0811 99.6956 12.9832 99.2389C12.7875 98.3255 12.5917 97.4121 12.396 96.5313C11.6783 93.0082 11.0911 89.6808 10.8628 86.6144C10.7649 85.0812 10.8628 83.6458 11.2543 82.341C11.45 81.6885 11.7436 81.1014 12.1024 80.5794C12.4613 80.0575 12.8853 79.6008 13.3747 79.2746H13.3094C15.8539 81.3623 17.8764 83.026 19.2465 84.1352C19.9316 84.6897 20.4535 85.1464 20.845 85.44C21.0081 85.5705 21.1712 85.701 21.269 85.7662C21.3669 85.7988 21.3995 85.8315 21.3995 85.8315Z" fill="#844031"/>
<path d="M19.9319 126.054V126.38C19.9319 126.38 25.4449 128.566 25.5101 129.609H14.5493L14.7124 125.956C16.3435 126.739 18.0724 126.804 19.9319 126.054Z" fill="#455A64"/>
<g opacity="0.6">
<g opacity="0.6">
<g opacity="0.6">
<g opacity="0.6">
<g opacity="0.6">
<g opacity="0.6">
<g opacity="0.6">
<g opacity="0.6">
<g opacity="0.6">
<g opacity="0.6">
<g opacity="0.6">
<g opacity="0.6">
<g opacity="0.6">
<g opacity="0.6">
<g opacity="0.6">
<g opacity="0.6">
<g opacity="0.6">
<g opacity="0.6">
<path opacity="0.6" d="M15.8204 127.13C15.6247 127.195 15.4616 127.424 15.5268 127.652C15.5921 127.881 15.8204 128.011 16.0161 127.978C16.2445 127.913 16.4076 127.652 16.3424 127.424C16.2771 127.228 15.9835 127.065 15.7878 127.163" fill="white"/>
</g>
</g>
</g>
</g>
</g>
</g>
</g>
</g>
</g>
</g>
</g>
</g>
</g>
</g>
</g>
</g>
</g>
</g>
<g opacity="0.6">
<g opacity="0.6">
<g opacity="0.6">
<g opacity="0.6">
<g opacity="0.6">
<g opacity="0.6">
<g opacity="0.6">
<g opacity="0.6">
<g opacity="0.6">
<g opacity="0.6">
<g opacity="0.6">
<g opacity="0.6">
<g opacity="0.6">
<g opacity="0.6">
<g opacity="0.6">
<g opacity="0.6">
<g opacity="0.6">
<path opacity="0.6" d="M14.582 129.609L14.6147 128.729L25.0861 129.055C25.0861 129.055 25.5755 129.283 25.5102 129.609H14.582Z" fill="white"/>
</g>
</g>
</g>
</g>
</g>
</g>
</g>
</g>
</g>
</g>
</g>
</g>
</g>
</g>
</g>
</g>
</g>
<path d="M19.9645 126.413C19.9645 126.478 19.7035 126.478 19.4426 126.673C19.1816 126.837 19.0511 127.065 18.9859 127.032C18.9206 127.032 19.0185 126.706 19.3447 126.51C19.6709 126.315 19.9971 126.38 19.9645 126.413Z" fill="#262626"/>
<path d="M21.1384 126.902C21.1384 126.967 20.91 127.032 20.7469 127.261C20.5512 127.489 20.5186 127.717 20.4533 127.717C20.3881 127.717 20.3555 127.424 20.5838 127.13C20.8122 126.869 21.1384 126.837 21.1384 126.902Z" fill="#262626"/>
<path d="M21.7906 128.272C21.7579 128.272 21.6601 128.011 21.7906 127.717C21.921 127.424 22.182 127.293 22.2146 127.359C22.2473 127.391 22.0841 127.554 21.9863 127.815C21.8558 128.044 21.8232 128.272 21.7906 128.272Z" fill="#262626"/>
<path d="M26.3264 29.3638C25.0542 30.1467 24.206 31.582 24.1408 33.0826C24.1082 33.8003 24.206 34.6484 23.6841 35.1378C23.1621 35.6271 22.2487 35.4966 21.7268 36.0185C21.1396 36.6057 21.4658 37.6496 21.1722 38.4652C20.9113 39.2155 20.0305 39.7048 19.2476 39.509C20.0957 40.3572 21.1396 40.977 22.314 41.2706C22.6728 40.9118 22.999 40.5529 23.3579 40.2267C22.9664 40.5856 22.999 41.238 23.26 41.6947C23.5536 42.1514 24.0429 42.445 24.5322 42.6407C26.8484 43.6846 29.6864 43.5541 31.9047 42.2819" fill="#262626"/>
<path d="M39.1465 37.2908C39.016 36.7036 38.7876 36.1816 38.7224 35.5945C38.5919 34.3548 39.3422 33.05 38.8855 31.8756C38.5593 31.0601 37.7111 30.5708 36.863 30.2119C36.0474 29.8531 35.1666 29.5269 34.5795 28.8418C34.1554 28.3199 33.9596 27.6674 33.5682 27.1455C32.981 26.4278 32.035 26.069 31.1216 25.9059C30.1756 25.7428 29.1643 25.7102 28.2835 26.0364C27.3701 26.3626 26.5872 27.0803 26.3262 27.9937C26.1957 28.4504 26.1957 28.9397 26 29.3638C25.7717 29.8205 25.3476 30.1793 25.0866 30.6034C24.4668 31.5168 24.5973 32.8216 25.3476 33.6045L30.9259 42.8038C32.2307 43.4888 35.656 43.2279 36.8303 42.3471C38.0047 41.4337 39.4401 38.7587 39.1465 37.2908Z" fill="#262626"/>
<path d="M25.6415 32.528C26.1308 30.6359 27.8598 28.5482 29.7192 29.1027L35.3627 31.7451C35.9173 31.9082 36.2761 32.4954 36.1456 33.0825L33.5033 47.1098C33.5033 47.1098 33.2097 47.175 33.5033 47.1098C33.5685 47.0771 33.6338 47.175 33.5685 47.2403C32.753 48.1863 28.9037 52.2966 25.6089 50.535C24.8912 50.1436 26.0004 47.8274 26.0004 46.914L26.3592 44.6305C26.5549 43.4562 26.6528 42.9995 26.6528 42.9995C26.6528 42.9995 24.304 42.1187 24.4019 38.8239C24.5324 37.1928 25.1196 34.6158 25.6415 32.528Z" fill="#CC725A"/>
<path d="M26.1634 35.464C26.0982 35.6924 26.2613 35.8881 26.4896 35.9533C26.718 36.0186 26.9463 35.8881 26.979 35.6597C27.0442 35.4314 26.8811 35.2357 26.6527 35.1704C26.4244 35.1378 26.2287 35.2357 26.1634 35.464Z" fill="#262626"/>
<path d="M30.1434 36.4752C30.0782 36.7036 30.2413 36.8993 30.4696 36.9645C30.698 37.0298 30.9263 36.8993 30.9589 36.671C31.0242 36.4426 30.8611 36.2469 30.6327 36.1816C30.4044 36.149 30.176 36.2795 30.1434 36.4752Z" fill="#262626"/>
<path d="M25.7725 33.9959C25.8051 34.0612 26.2292 33.8655 26.6859 33.9959C27.1752 34.1264 27.4362 34.4853 27.5014 34.42C27.534 34.3874 27.5014 34.2569 27.4035 34.0938C27.3057 33.9307 27.0773 33.735 26.7837 33.6697C26.4901 33.6045 26.1965 33.6697 26.0334 33.735C25.8377 33.8655 25.7725 33.9633 25.7725 33.9959Z" fill="#262626"/>
<path d="M30.0124 35.0072C30.045 35.0725 30.4691 34.8441 30.991 34.942C31.513 35.0072 31.8392 35.3661 31.9045 35.3008C31.9371 35.2682 31.9045 35.1377 31.7413 35.0072C31.6109 34.8441 31.3499 34.681 31.0237 34.6484C30.6975 34.6158 30.4039 34.681 30.2408 34.7789C30.045 34.8441 29.9798 34.9746 30.0124 35.0072Z" fill="#262626"/>
<path d="M28.0224 37.8452C28.0224 37.8126 27.7615 37.7148 27.3374 37.5843C27.2395 37.5517 27.1417 37.519 27.109 37.4212C27.109 37.3233 27.1743 37.2254 27.2395 37.095C27.4026 36.834 27.5657 36.573 27.7288 36.312C28.4139 35.1703 28.9685 34.2569 28.9032 34.2243C28.8706 34.1916 28.2508 35.0724 27.5657 36.2142C27.4026 36.5078 27.2395 36.7687 27.0764 36.9971C27.0112 37.1276 26.9133 37.2581 26.9459 37.4212C26.9459 37.519 27.0438 37.5843 27.109 37.6169C27.1743 37.6495 27.2395 37.6821 27.3048 37.6821C27.7615 37.8126 28.0224 37.8779 28.0224 37.8452Z" fill="#262626"/>
<path d="M26.7183 42.9994C26.7183 42.9994 28.8387 43.554 31.1874 42.6732C31.1874 42.6732 29.6868 44.6957 26.5552 43.7823L26.7183 42.9994Z" fill="#844031"/>
<path d="M29.2291 39.3132C29.1965 39.2153 29.1313 39.0849 29.0334 39.0196C28.9356 38.9544 28.7725 38.9218 28.642 38.9218C28.4462 38.9218 28.2505 38.987 28.12 39.1175C27.9895 39.248 27.8917 39.4437 27.9243 39.6394C27.9569 39.8352 28.2179 39.9656 28.4136 40.0309C28.6093 40.0961 28.8051 40.0635 28.9682 39.9656C29.1313 39.9004 29.2618 39.8025 29.2944 39.6394C29.327 39.5089 29.2944 39.4111 29.2291 39.3132Z" fill="#844031"/>
<path d="M29.2297 38.661C29.1645 38.6284 29.0666 39.1177 28.5773 39.3786C28.088 39.6396 27.5986 39.4765 27.5986 39.5418C27.5986 39.5744 27.6965 39.6722 27.8922 39.7049C28.088 39.7375 28.4142 39.7375 28.7078 39.5744C29.0014 39.4113 29.1645 39.1503 29.1971 38.9546C29.2949 38.7915 29.2623 38.661 29.2297 38.661Z" fill="#262626"/>
<path d="M30.1431 33.8003C30.1757 33.9308 30.5998 33.9634 31.1217 34.1265C31.6437 34.2896 32.0025 34.518 32.1004 34.4201C32.133 34.3875 32.1004 34.257 31.9372 34.0939C31.8068 33.9308 31.5458 33.8003 31.2522 33.7024C30.9586 33.6046 30.665 33.6046 30.4693 33.6372C30.2736 33.6698 30.1431 33.7351 30.1431 33.8003Z" fill="#262626"/>
<path d="M26.4569 32.2671C26.5221 32.3976 26.881 32.3323 27.305 32.4302C27.7291 32.4954 28.0553 32.6585 28.1532 32.5607C28.1858 32.5281 28.1532 32.3976 28.0227 32.2671C27.8922 32.1366 27.6639 32.0061 27.3703 31.9735C27.0767 31.9409 26.8157 31.9735 26.6526 32.0387C26.4895 32.1366 26.4243 32.2345 26.4569 32.2671Z" fill="#262626"/>
<path d="M36.6349 32.3649C36.4065 31.8756 35.8846 31.582 35.3952 31.3211C33.3075 30.2119 31.0892 29.3638 28.7731 28.8092C28.4143 29.2659 28.61 29.951 29.0341 30.3424C29.4255 30.7339 29.9801 30.9296 30.4694 31.1906C30.9587 31.4515 31.4807 31.8104 31.6438 32.3649C31.8069 32.9521 31.5459 33.5719 31.6764 34.1591C31.9048 35.1704 33.2096 35.6271 33.438 36.6384C33.6011 37.3886 33.1117 38.1389 32.916 38.8892C32.6877 39.7374 32.916 40.6834 33.4706 41.3685C33.9273 41.8904 34.5797 42.2492 35.2648 42.3471C35.7541 39.6069 36.2108 36.8667 36.7001 34.1265C36.798 33.5067 36.8958 32.8869 36.6349 32.3649Z" fill="#262626"/>
<path d="M41.3978 39.9983C41.0063 39.5416 40.4844 39.1502 40.3865 38.563C40.2234 37.7148 41.0063 36.8341 40.6475 36.0511C40.3539 35.3335 39.2121 35.2356 38.9185 34.5179C38.6902 33.9307 39.0816 33.5067 39.0164 33.0173C38.9512 32.528 38.3314 32.0387 37.842 32.0387L33.4381 37.0624C32.8836 38.8566 32.4269 39.8026 32.6878 40.9117C32.851 41.5315 33.0467 42.1187 33.0793 42.7712C33.1119 43.4236 32.851 44.076 32.2964 44.4022C34.5146 44.8263 36.7655 43.9129 38.8533 42.9995C39.6036 42.6733 40.3213 42.3471 41.0716 42.0209C41.2999 41.923 41.5283 41.8251 41.6914 41.6294C42.0828 41.1075 41.7892 40.4224 41.3978 39.9983Z" fill="#262626"/>
<path d="M39.0163 42.4122C39.0163 42.4122 38.9185 42.4448 38.7553 42.4448C38.5922 42.4448 38.3639 42.4122 38.0703 42.3143C37.7767 42.2165 37.4505 42.0208 37.1569 41.6619C36.8633 41.3357 36.6676 40.8464 36.6676 40.2592C36.6676 39.9656 36.7328 39.672 36.8307 39.411C36.9612 39.1174 37.1569 38.8891 37.3526 38.6281C37.5483 38.3672 37.7767 38.1062 37.8746 37.8126C38.005 37.519 38.0377 37.1275 37.8746 36.8339C37.7115 36.5403 37.32 36.4099 36.9938 36.2468C36.8307 36.1489 36.6676 36.0184 36.5697 35.8227C36.4718 35.6269 36.4392 35.4312 36.4718 35.2029C36.5371 34.7788 36.7328 34.42 36.8633 34.0611C36.9285 33.8654 36.9612 33.6697 36.9285 33.4739C36.8959 33.2782 36.7981 33.1151 36.6676 32.9846C36.374 32.7236 35.9499 32.6258 35.5584 32.5605C35.167 32.4953 34.7429 32.3322 34.4493 32.0712C34.1231 31.8102 33.8947 31.484 33.7643 31.1252C33.6338 30.7664 33.6012 30.3749 33.6012 30.0161C33.6012 29.6572 33.5685 29.2984 33.5033 28.9722C33.4054 28.646 33.2749 28.3524 33.0792 28.124C32.6878 27.6347 32.1332 27.3411 31.6112 27.2432C31.0893 27.1454 30.5674 27.2106 30.1759 27.3737C29.6866 27.5368 29.3604 27.7326 29.132 27.9283C28.6753 28.3197 28.5122 28.646 28.5122 28.646C28.5122 28.646 28.5122 28.6133 28.5448 28.5807C28.5774 28.5481 28.6101 28.4828 28.6427 28.4176C28.7406 28.2871 28.871 28.0914 29.0994 27.8957C29.3277 27.6999 29.654 27.4716 30.0454 27.3085C30.4369 27.1454 30.9588 27.0475 31.5134 27.1454C32.0679 27.2432 32.6225 27.5368 33.0466 28.0588C33.2423 28.3197 33.438 28.6133 33.5033 28.9722C33.6012 29.2984 33.6012 29.6898 33.6012 30.0487C33.6012 30.4075 33.6338 30.7664 33.7643 31.1252C33.8947 31.484 34.1231 31.7776 34.4167 32.006C34.7103 32.2669 35.1017 32.3648 35.4932 32.4627C35.8847 32.5279 36.3414 32.6258 36.6676 32.9194C36.8307 33.0499 36.9612 33.2782 36.9938 33.5066C37.0264 33.7349 36.9938 33.9306 36.9285 34.1264C36.7981 34.5178 36.6023 34.8767 36.5371 35.2355C36.5045 35.4312 36.5371 35.5943 36.6023 35.7574C36.7002 35.9205 36.8307 36.0184 36.9938 36.1163C37.1569 36.2141 37.32 36.2794 37.4831 36.3772C37.6462 36.4751 37.8093 36.6056 37.9072 36.7687C38.1029 37.1275 38.0377 37.519 37.9072 37.8452C37.7767 38.1714 37.5483 38.4324 37.3526 38.6934C37.1569 38.9543 36.9612 39.1827 36.8307 39.4437C36.7002 39.7046 36.6676 39.9982 36.6676 40.2592C36.6676 40.8138 36.8633 41.2705 37.1243 41.5967C37.3852 41.9229 37.7115 42.1186 38.005 42.2491C38.6575 42.4775 39.0163 42.4122 39.0163 42.4122Z" fill="#455A64"/>
<path d="M42.441 38.8892C42.441 38.8892 42.4736 38.9544 42.5062 39.0849C42.5062 39.2154 42.5062 39.4111 42.3431 39.6394C42.2779 39.7373 42.1474 39.8352 42.0169 39.9004C41.8864 39.9657 41.6907 39.9983 41.5276 39.9657C41.1687 39.933 40.7773 39.6721 40.6142 39.2154C40.5489 38.987 40.5163 38.7587 40.5489 38.4977C40.5815 38.2367 40.6794 38.0084 40.7773 37.78C41.0056 37.3233 41.3971 36.8666 41.4623 36.3121C41.4949 36.0511 41.4623 35.7249 41.2992 35.4965C41.1361 35.2682 40.8099 35.1703 40.5163 35.1377C40.2227 35.1051 39.8639 35.1051 39.5376 34.9093C39.3745 34.8115 39.2441 34.681 39.1788 34.5179C39.1136 34.3548 39.0809 34.1917 39.0809 33.9959C39.0809 33.6371 39.2114 33.3109 39.2767 33.0173C39.3745 32.6911 39.3745 32.3975 39.3419 32.0713C39.2441 31.4515 38.9178 30.9295 38.4611 30.5707C38.0044 30.2118 37.4499 30.114 36.9279 30.0487C36.406 29.9509 35.9167 29.8856 35.5252 29.6573C35.1338 29.4616 34.8075 29.168 34.5792 28.907C34.3508 28.646 34.1877 28.3524 34.1225 28.1241C33.9268 27.6674 33.9268 27.3738 33.9268 27.3738C33.9594 27.3738 33.9594 27.6348 34.1551 28.0915C34.253 28.3198 34.4161 28.5808 34.6444 28.8417C34.8728 29.1027 35.1664 29.3637 35.5578 29.5594C35.9493 29.7551 36.4386 29.853 36.9279 29.9183C37.4499 30.0161 38.0044 30.0814 38.4938 30.4728C38.9831 30.8317 39.3419 31.3862 39.4398 32.0386C39.505 32.3649 39.4724 32.6911 39.3745 33.0173C39.3093 33.3435 39.1788 33.6697 39.1788 33.9633C39.1788 34.2895 39.3093 34.6157 39.5703 34.7462C39.8312 34.9093 40.1575 34.9093 40.4837 34.942C40.8099 34.9746 41.1361 35.0724 41.3645 35.3334C41.5602 35.5944 41.5928 35.9532 41.5602 36.2468C41.5276 36.5404 41.3971 36.834 41.2666 37.0624C41.1361 37.2907 40.973 37.5191 40.8425 37.7474C40.712 37.9758 40.6468 38.2041 40.6142 38.4325C40.5815 38.6608 40.6142 38.8892 40.6794 39.0849C40.8099 39.509 41.1687 39.7373 41.5276 39.7699C41.6907 39.8026 41.8538 39.7699 41.9843 39.7047C42.1147 39.6394 42.2126 39.5416 42.2779 39.4763C42.4083 39.2806 42.4736 39.0849 42.441 38.9544C42.4736 38.9544 42.441 38.8892 42.441 38.8892Z" fill="#262626"/>
<path d="M18.5298 37.4865C18.5625 37.4865 18.3667 37.6822 18.4646 38.0737C18.4972 38.2694 18.6277 38.4977 18.8887 38.5956C19.117 38.6935 19.4759 38.6935 19.7368 38.4651C19.8673 38.3673 19.9652 38.2042 19.9978 38.0084C20.0304 37.8127 20.0304 37.617 19.9652 37.4212C19.8999 37.0298 19.7042 36.5731 19.8021 36.0838C19.8999 35.5944 20.1935 35.1377 20.6502 34.8441C20.8786 34.7137 21.1395 34.6158 21.4005 34.5506C21.6615 34.4853 21.9551 34.5179 22.2161 34.5179C22.477 34.5506 22.738 34.5506 22.999 34.5179C23.2599 34.4853 23.4883 34.3874 23.6514 34.2243C23.8145 34.0612 23.9124 33.8003 23.945 33.5719C23.9776 33.3436 23.9776 33.1152 23.9776 32.8542C23.945 32.3975 23.8471 31.9408 23.9124 31.5168C23.9776 31.0927 24.206 30.7338 24.4343 30.4729C24.6953 30.2119 24.9889 30.0488 25.2499 29.9509C25.5108 29.8204 25.7066 29.7226 25.8697 29.6247C26.1959 29.3964 26.2937 29.168 26.2937 29.2006C26.2937 29.2006 26.2937 29.2006 26.2937 29.2333C26.2937 29.2659 26.2611 29.2985 26.2285 29.3311C26.1633 29.429 26.0654 29.5595 25.9023 29.6573C25.7392 29.7878 25.5108 29.8857 25.2825 30.0162C25.0215 30.1467 24.7605 30.2771 24.4996 30.5381C24.2712 30.7991 24.0755 31.1253 24.0102 31.5494C23.945 31.9408 24.0429 32.3975 24.0755 32.8542C24.1081 33.0826 24.1081 33.3436 24.0429 33.6045C24.0102 33.8655 23.9124 34.0939 23.7166 34.3222C23.5209 34.5179 23.2599 34.6484 22.999 34.681C22.738 34.7137 22.4444 34.681 22.1834 34.681C21.9225 34.6484 21.6615 34.6484 21.4005 34.7137C21.1395 34.7463 20.9112 34.8441 20.7155 34.9746C20.2914 35.2356 19.9978 35.6597 19.9326 36.1164C19.8347 36.5731 20.0304 36.9972 20.0957 37.4212C20.1283 37.617 20.1609 37.8453 20.0957 38.041C20.063 38.2368 19.9652 38.4325 19.8021 38.5304C19.5085 38.7587 19.117 38.7913 18.856 38.6609C18.5951 38.5304 18.4646 38.2694 18.432 38.0737C18.3993 37.8779 18.432 37.7148 18.4646 37.617C18.4972 37.5191 18.5298 37.4865 18.5298 37.4865Z" fill="#262626"/>
<path d="M33.0135 73.0438L14.615 69.2924C14.615 69.2924 11.9726 71.739 10.9287 74.9033C8.77573 81.4275 12.4293 98.8148 12.4293 98.8148L21.6286 98.1623L35.1339 97.4121C35.1339 90.5616 33.144 77.0889 33.144 77.0889L33.0135 73.0438Z" fill="#262626"/>
<path d="M38.2005 47.9906L33.7966 46.066C33.7966 46.066 31.2848 48.3821 28.4141 47.5013C26.7178 46.9794 26.359 45.1852 26.359 45.1852L21.2048 45.4788L18.9213 55.2652L18.856 60.8761L13.9302 69.1293C13.9302 69.1293 20.1283 77.8393 34.0576 75.5231L34.9384 64.5949C34.9384 64.5949 37.0914 58.7557 37.1893 56.7984C37.2871 54.8411 37.1893 52.4924 37.1893 52.4924L38.2005 47.9906Z" fill="#665DE6" stroke="#262626" stroke-width="0.05" stroke-miterlimit="10"/>
<path d="M21.9229 60.6804C21.9229 60.6804 22.0207 60.7783 22.1838 60.974C22.3469 61.1697 22.6079 61.4307 22.9667 61.7243C23.6192 62.3441 24.6304 63.127 25.8048 63.8447C26.9792 64.5624 28.1536 65.0843 29.0017 65.3779C29.4258 65.541 29.7846 65.6389 30.013 65.7041C30.2413 65.7694 30.4044 65.802 30.4044 65.802C30.4044 65.802 30.2739 65.7367 30.0456 65.6389C29.8172 65.541 29.4584 65.4432 29.0343 65.2474C28.1862 64.9212 27.077 64.3993 25.87 63.6816C24.6957 62.9639 23.717 62.2136 23.032 61.5938C22.7058 61.3002 22.4122 61.0393 22.2491 60.8761C22.0533 60.7783 21.9229 60.6804 21.9229 60.6804Z" fill="#262626"/>
<g opacity="0.3">
<path opacity="0.3" d="M16.834 64.2361C17.4538 64.5297 18.3346 64.3992 18.8565 63.9425C19.3785 63.4858 19.7047 62.866 19.9983 62.2789C20.7159 60.8761 21.401 59.506 22.1187 58.1033C24.5979 57.353 27.3055 57.5161 29.6868 58.5274C30.0457 58.6905 30.4045 58.8536 30.6655 59.1472C31.0243 59.5713 31.0896 60.1258 31.1548 60.6804C31.3179 61.9853 31.4484 63.3227 31.9703 64.5624C32.4923 65.7693 33.4383 66.8785 34.7105 67.2373L35.3956 61.3002L33.4709 56.6027L24.1738 54.8738L20.3245 56.3091L17.7148 62.6703L16.834 64.2361Z" fill="#262626"/>
</g>
<path d="M37.6792 47.8275C37.6792 47.8275 39.8648 48.0559 40.7456 50.9592C41.398 53.0796 41.8873 57.1899 41.8873 57.1899L36.4722 57.4835V52.264L37.6792 47.8275Z" fill="#665DE6" stroke="#262626" stroke-width="0.05" stroke-miterlimit="10"/>
<path d="M21.1727 45.446C21.1727 45.446 19.5417 45.3808 18.3673 46.4899C17.1929 47.6317 14.6484 51.9051 14.6484 51.9051L19.8679 53.6666L21.5316 48.4798L21.1727 45.446Z" fill="#665DE6" stroke="#262626" stroke-width="0.05" stroke-miterlimit="10"/>
<path d="M37.9406 53.3405C37.9079 53.3405 37.8101 53.5688 37.6796 53.9603C37.5165 54.3843 37.3207 54.9063 37.0924 55.4608C36.864 56.0154 36.6683 56.5374 36.5052 56.9614C36.3421 57.3529 36.2769 57.5812 36.2769 57.5812C36.3095 57.5812 36.4073 57.3529 36.6031 56.9941C36.7662 56.6352 37.0271 56.0807 37.2555 55.4935C37.4838 54.9063 37.6796 54.3517 37.8101 53.9603C37.8753 53.5688 37.9406 53.3405 37.9406 53.3405Z" fill="#262626"/>
<path d="M20.5204 49.5238C20.4878 49.5238 20.1616 50.6329 19.7701 52.003C19.4113 53.3731 19.1177 54.5149 19.183 54.5149C19.2156 54.5149 19.5418 53.4058 19.9333 52.0357C20.2921 50.6656 20.5857 49.5238 20.5204 49.5238Z" fill="#262626"/>
<path d="M31.2193 46.6206L30.5017 54.4497C30.4691 54.7107 30.2407 54.9064 29.9471 54.8738L24.9234 54.4823C24.6298 54.4497 24.4341 54.2214 24.4341 53.9604L24.9234 45.7398C24.956 45.4462 25.217 45.2505 25.5106 45.2831L30.7953 46.066C31.0562 46.1312 31.252 46.3596 31.2193 46.6206Z" fill="#262626"/>
<path d="M28.2511 50.3395C28.3816 50.3721 31.2197 51.3834 31.2197 51.3834L35.0038 54.2215L36.5044 57.451L33.7642 60.811L33.177 57.4184C33.177 57.4184 32.1005 57.5815 31.2197 57.3531C30.3389 57.0921 27.5661 56.3745 27.5661 56.3745L26.2612 55.3306C26.2612 55.3306 25.935 54.515 25.9676 54.3193C26.0002 54.1236 26.2612 53.8952 26.5222 54.1236C26.7832 54.3519 28.8383 54.7434 29.3603 54.6455C29.3603 54.6455 26.4243 53.8952 26.1307 53.3733C25.8371 52.8514 26.0329 52.4925 26.4896 52.5578C26.9463 52.6556 28.61 53.1776 29.1319 53.2428C29.6539 53.3081 30.2737 53.4059 30.4694 53.1776C30.6325 52.9492 30.3063 52.6882 30.3063 52.6882L29.817 52.1663C29.817 52.1663 27.7292 51.416 27.6639 50.9267C27.5987 50.47 28.0228 50.2743 28.2511 50.3395Z" fill="#CC725A"/>
<path d="M27.2717 50.0133C27.2717 50.0133 24.7272 49.948 24.5315 50.0785C24.3358 50.209 20.5517 53.3406 20.5517 53.3406L19.6709 53.8952L21.1715 56.7985L21.5956 56.6354C21.5956 56.6354 24.3358 55.7873 24.662 55.6894C24.9882 55.5915 25.608 55.5589 25.608 55.5589C25.608 55.5589 28.5113 55.6241 28.7397 55.3306C28.968 55.037 28.9028 54.9391 28.6744 54.8412C28.4787 54.7434 26.7498 54.6455 26.3583 54.6455C25.9668 54.6455 25.2492 54.4498 25.2492 54.4498C25.2492 54.4498 26.4562 54.3845 26.7498 54.3519C27.0433 54.3193 29.7509 54.2214 29.8162 53.7647C29.8488 53.308 29.5552 53.0797 27.8263 53.2102C26.0973 53.3406 24.9882 53.1449 24.9882 53.1449L28.8375 52.5904C28.8375 52.5904 30.3707 52.3946 29.9793 51.9053C29.5878 51.416 26.2931 51.677 26.2931 51.677L24.8251 51.9379L25.347 51.1876C25.347 51.1876 27.4348 50.9919 27.6958 50.8288C28.0546 50.6657 28.1199 50.4373 27.9241 50.209C27.761 49.9806 27.2717 50.0133 27.2717 50.0133Z" fill="#CC725A"/>
<path d="M15.0721 52.0682L19.3129 53.5036L19.0845 54.4822L19.9327 53.6993L21.1397 56.7983C21.1397 56.7983 20.1937 58.5925 19.6717 59.5712C18.269 62.2135 16.2791 65.1168 14.5501 64.6275C12.4624 64.0403 11.8426 61.6589 12.1688 60.1257C12.4624 58.6904 15.0721 52.0682 15.0721 52.0682Z" fill="#CC725A"/>
<path d="M41.5608 57.2223L37.6789 57.4507L36.5045 57.4833L35.7216 55.787L33.4707 58.6903C33.4707 58.6903 33.7317 60.7128 33.8948 61.822C34.2536 64.7905 35.1344 68.1831 36.9286 68.3462C39.0816 68.542 41.0715 66.389 41.2999 64.8231C41.4956 63.3878 41.5608 57.2223 41.5608 57.2223Z" fill="#CC725A"/>
<path d="M20.5522 53.308C20.5522 53.308 20.5849 53.2754 20.6501 53.2101C20.7154 53.1449 20.8132 53.047 20.9763 52.9492C21.2699 52.7208 21.6614 52.3946 22.1833 51.9379C22.7053 51.5138 23.3577 50.9919 24.0754 50.3721C24.1732 50.3068 24.2711 50.209 24.369 50.1437C24.4016 50.1111 24.4668 50.0785 24.5321 50.0132C24.5973 49.9806 24.6626 49.9806 24.7278 49.948C24.9888 49.9154 25.2497 49.9154 25.5433 49.9154C26.0979 49.9154 26.6851 49.9154 27.3049 49.9154C27.468 49.9154 27.6311 49.9154 27.7616 49.9806C27.8268 50.0132 27.9247 50.0459 27.9899 50.1111C28.0552 50.1763 28.0878 50.2416 28.1204 50.3068C28.153 50.3721 28.153 50.4699 28.0878 50.5678C28.0552 50.633 27.9899 50.6983 27.9247 50.7635C27.8595 50.7962 27.7942 50.8614 27.6963 50.894C27.6311 50.9266 27.5332 50.9266 27.468 50.9593C26.8156 51.0897 26.1305 51.155 25.4128 51.2202L25.4455 51.1876C25.2824 51.416 25.0866 51.6769 24.9235 51.9379L24.8257 51.8727C25.2824 51.8074 25.8043 51.7096 26.2936 51.6117C26.9134 51.5791 27.5659 51.5465 28.2183 51.5465C28.5445 51.5465 28.8707 51.5464 29.1969 51.5791C29.36 51.6117 29.5231 51.6117 29.6863 51.6769C29.7841 51.7096 29.8494 51.7422 29.9472 51.7748C30.0125 51.84 30.0777 51.9053 30.1103 52.0032C30.1103 52.101 30.0451 52.1989 29.9798 52.2641C29.9146 52.3294 29.8167 52.362 29.7515 52.3946C29.5884 52.4599 29.4253 52.4925 29.2622 52.5251C28.936 52.5903 28.5771 52.623 28.2509 52.6882C27.5659 52.7861 26.8808 52.8839 26.1631 52.9818C25.7717 53.047 25.4128 53.0797 25.0214 53.1449V53.047C25.9022 53.1775 26.7829 53.1775 27.6637 53.1449C28.0878 53.1123 28.5119 53.0797 28.9686 53.1123C29.1969 53.1123 29.3927 53.1449 29.621 53.2101C29.7189 53.2428 29.8167 53.308 29.882 53.4385C29.9472 53.5364 29.9472 53.6668 29.9146 53.7647C29.9146 53.83 29.8494 53.8626 29.8167 53.8952C29.7841 53.9278 29.7189 53.9604 29.6863 53.9604C29.5884 53.9931 29.4905 54.0257 29.3927 54.0583C29.1969 54.1235 29.0012 54.1562 28.8055 54.1562C28.414 54.2214 28.0226 54.254 27.6311 54.2867C27.4354 54.2867 27.2396 54.3193 27.0439 54.3193C26.8482 54.3193 26.6525 54.3519 26.4893 54.3845C26.0979 54.4171 25.7391 54.4171 25.3802 54.4498V54.3519C25.8043 54.4498 26.1958 54.5476 26.6198 54.5476C27.0439 54.5802 27.4354 54.5802 27.8268 54.6129C28.0226 54.6455 28.2183 54.6455 28.414 54.6781C28.5119 54.6781 28.6097 54.7107 28.7076 54.7107C28.7402 54.7107 28.8055 54.7434 28.8381 54.7434C28.8707 54.776 28.936 54.776 28.9686 54.8086C29.0012 54.8412 29.0338 54.8738 29.0664 54.9391C29.0664 55.0043 29.0664 55.0369 29.0338 55.1022C29.0012 55.1348 29.0012 55.1674 28.9686 55.2327L28.936 55.2979C28.936 55.3305 28.9033 55.3305 28.8707 55.3632C28.7076 55.461 28.5119 55.461 28.3488 55.4936C27.6637 55.5589 27.0113 55.5589 26.3915 55.5589C26.2284 55.5589 26.0979 55.5589 25.9348 55.5589C25.8043 55.5589 25.6412 55.5589 25.5107 55.5589C25.2497 55.5915 24.9888 55.5915 24.7278 55.6894C23.7818 55.983 23.0315 56.2113 22.5095 56.3744C22.2486 56.4397 22.0528 56.5049 21.9223 56.5375C21.8571 56.5702 21.8245 56.5702 21.7592 56.5702C21.7266 56.5702 21.694 56.5702 21.694 56.5702C21.694 56.5702 21.694 56.5702 21.7592 56.5375C21.7919 56.5375 21.8571 56.5049 21.9223 56.4723C22.0528 56.4397 22.2486 56.3744 22.5095 56.2766C23.0315 56.1135 23.7818 55.8851 24.7278 55.5915C25.2171 55.4284 25.7717 55.461 26.3915 55.461C26.9787 55.461 27.6637 55.461 28.3488 55.3958C28.5119 55.3632 28.7076 55.3632 28.8381 55.2653C28.8707 55.2653 28.8707 55.2327 28.8707 55.2327L28.9033 55.1674C28.936 55.1348 28.936 55.1022 28.9686 55.0696C29.0012 55.0043 29.0012 54.9065 28.936 54.8738C28.9033 54.8412 28.8707 54.8412 28.8381 54.8086C28.8055 54.8086 28.7402 54.776 28.7076 54.776C28.6097 54.776 28.5119 54.7434 28.414 54.7434C28.2183 54.7107 28.0226 54.7107 27.8268 54.6781C27.4354 54.6455 27.0439 54.6129 26.6198 54.6129C26.1958 54.6129 25.7717 54.515 25.3802 54.4171C25.3476 54.4171 25.3476 54.3845 25.3476 54.3519C25.3476 54.3193 25.3802 54.3193 25.3802 54.3193C25.7391 54.2867 26.0979 54.2867 26.4893 54.254C26.6851 54.254 26.8482 54.2214 27.0439 54.1888C27.2396 54.1888 27.4354 54.1562 27.6311 54.1562C28.0226 54.1235 28.414 54.0909 28.8055 54.0257C29.0012 53.9931 29.1969 53.9604 29.3927 53.9278C29.4905 53.8952 29.5884 53.8626 29.6863 53.83C29.7841 53.7973 29.882 53.7321 29.882 53.6668C29.882 53.569 29.882 53.4711 29.8494 53.4059C29.8167 53.3406 29.7189 53.2754 29.6536 53.2428C29.4579 53.1775 29.2622 53.1449 29.0664 53.1449C28.6424 53.1123 28.2183 53.1449 27.7942 53.1775C26.9134 53.2428 26.0327 53.2101 25.1192 53.0797C25.0866 53.0797 25.0866 53.047 25.0866 53.0144C25.0866 52.9818 25.1192 52.9818 25.1192 52.9818C25.4781 52.9166 25.8695 52.8839 26.261 52.8187C26.9787 52.7208 27.6637 52.623 28.3488 52.5251C28.7076 52.4599 29.0338 52.4272 29.36 52.362C29.5231 52.3294 29.6863 52.2967 29.8494 52.2315C29.9146 52.1989 30.0125 52.1663 30.0451 52.1336C30.1103 52.101 30.143 52.0358 30.143 51.9705C30.1103 51.84 29.9798 51.7422 29.8167 51.7096C29.6536 51.6769 29.4905 51.6443 29.3274 51.6117C29.0012 51.5791 28.675 51.5791 28.3488 51.5465C27.6963 51.5465 27.0765 51.5791 26.4567 51.6117C25.9348 51.7096 25.4455 51.7748 24.9888 51.8727C24.9561 51.8727 24.9235 51.8727 24.9235 51.84V51.8074C25.1193 51.5465 25.2824 51.2855 25.4781 51.0571L25.5107 51.0245C26.2284 50.9593 26.9134 50.8614 27.5659 50.7635C27.6311 50.7635 27.729 50.7309 27.7942 50.6983C27.8595 50.6657 27.9247 50.633 27.9899 50.6004C28.1204 50.5026 28.2183 50.3721 28.153 50.2416C28.1204 50.1111 27.9899 50.0132 27.8595 49.9806C27.729 49.948 27.5659 49.9154 27.4354 49.9154C26.8156 49.9154 26.2284 49.8828 25.6738 49.9154C25.4128 49.9154 25.1192 49.9154 24.8583 49.948C24.793 49.948 24.7278 49.948 24.6952 49.9806C24.6299 50.0132 24.5973 50.0459 24.5647 50.0785C24.4668 50.1437 24.369 50.2416 24.2711 50.3068C23.5208 50.894 22.8684 51.416 22.3464 51.8727C21.8245 52.2967 21.4004 52.623 21.1394 52.8513C21.0089 52.9492 20.9111 53.047 20.8132 53.1123C20.5849 53.2754 20.5522 53.308 20.5522 53.308Z" fill="#844031"/>
<path d="M19.8025 53.8626C19.8351 53.8952 18.2693 55.2 16.312 56.7985C14.3547 58.3969 12.7563 59.6692 12.7236 59.6366C12.691 59.6039 14.2569 58.2991 16.2141 56.7006C18.1714 55.1022 19.7699 53.8299 19.8025 53.8626Z" fill="#844031"/>
<path d="M39.1142 63.1597C39.0815 63.1597 39.0163 62.8008 38.7879 62.2136C38.5922 61.6264 38.2334 60.8435 37.7767 59.9954C37.32 59.1472 36.8959 58.3969 36.6023 57.8424C36.4392 57.5488 36.3413 57.353 36.2761 57.1899C36.2108 57.0268 36.1782 56.929 36.1782 56.929C36.1782 56.929 36.2435 56.9942 36.3087 57.1573C36.4066 57.3204 36.5371 57.5488 36.6675 57.8097C36.9938 58.3643 37.4178 59.1146 37.8745 59.9628C38.3312 60.8109 38.6575 61.6264 38.8532 62.2136C38.951 62.5072 39.0163 62.7682 39.0489 62.9313C39.1142 63.0618 39.1142 63.1597 39.1142 63.1597Z" fill="#844031"/>
</svg>
