<svg width="226" height="163" viewBox="0 0 226 163" fill="none" xmlns="http://www.w3.org/2000/svg">
<path d="M113 156.162C175.408 156.162 226 150.672 226 143.9C226 137.128 175.408 131.639 113 131.639C50.5918 131.639 0 137.128 0 143.9C0 150.672 50.5918 156.162 113 156.162Z" fill="#EBEBEB"/>
<path d="M134.494 74.1925C134.494 74.4725 134.271 74.7524 133.936 74.7524C133.265 74.7524 132.428 74.6965 131.534 74.6405C129.97 68.8175 128.127 64.0583 128.573 65.906C129.188 68.5375 129.467 72.2329 129.188 74.5285C128.127 74.4725 125.669 74.3605 124.44 74.2485C123.602 64.1703 121.982 56.5556 121.926 58.8512C121.535 68.0336 120.698 70.9451 119.748 74.0246C108.241 73.3527 93.1597 72.2889 82.2675 71.281C81.5972 65.682 81.0945 59.6351 80.871 60.027C79.0836 62.9385 78.1899 67.4177 77.7989 70.8331C74.3357 70.4972 71.5987 70.1612 69.9229 69.8813C69.9229 69.8813 69.5878 65.1781 69.6436 63.6664C69.7554 59.803 70.5932 55.8837 72.1014 52.2444C73.6654 48.549 76.0114 45.3576 78.2457 42.1101L78.3016 42.0541C79.8656 39.8145 81.0386 37.5749 81.9323 35.2233C81.9323 35.2233 81.9323 35.2233 81.9323 35.1673C82.5468 33.4876 83.0495 31.7519 83.3846 29.7923C84.6135 23.0734 89.0262 17.6424 95.5616 16.5226C107.459 8.73994 120.195 12.4913 122.932 21.5617C123.211 22.4575 123.435 23.4654 123.658 24.5292V24.5852C124.496 28.6165 125.054 33.8236 125.613 37.7989C125.613 37.7989 125.613 37.7989 125.613 37.8549C125.892 39.7585 126.227 41.3823 126.563 42.5021C128.797 49.8928 135.276 54.596 134.494 74.1925Z" fill="#262626"/>
<path d="M92.5453 18.0343C88.1325 19.77 85.2838 22.6815 84.1108 27.5527C83.4405 30.4082 82.9378 33.1517 81.5413 35.7832C80.089 38.4708 78.0781 40.5984 75.9556 42.67C72.6041 46.0295 70.2022 49.4449 69.2526 54.204C68.2472 59.0752 67.9121 64.8982 69.0851 69.6574H69.1409C68.3031 64.8422 68.9175 58.4033 70.2581 53.6441C71.7104 48.3811 75.1177 45.3576 78.6367 41.6062C81.4296 38.6387 83.3846 35.2233 84.3342 31.192C84.8928 28.7845 85.1162 26.2649 86.3451 24.0813C87.7974 21.4497 90.311 19.938 92.7687 18.6502C93.1597 18.4263 92.8804 17.9224 92.5453 18.0343Z" fill="#262626"/>
<path d="M132.707 50.7886C130.193 46.6453 127.456 43.062 126.227 38.1348C125.11 33.6556 124.719 28.9524 123.546 24.4732C123.546 24.4172 123.435 24.4172 123.435 24.4732C125.054 32.4238 124.719 40.2065 129.02 47.2053C131.366 51.0126 133.657 54.54 134.997 58.9072C136.394 63.5544 136.729 68.2016 136.338 73.0728C136.338 73.2407 136.561 73.2407 136.561 73.0728C138.181 65.3461 136.673 57.3395 132.707 50.7886Z" fill="#262626"/>
<path d="M163.484 39.3666L147.956 68.6495C147.398 69.4894 147.677 70.3292 148.571 70.5532L164.658 74.5285C165.551 74.7525 166.724 74.2486 167.283 73.4087L182.811 44.1258C183.37 43.286 183.091 42.4461 182.197 42.2221L166.11 38.2468C165.216 38.0789 164.043 38.5268 163.484 39.3666Z" fill="#665DE6"/>
<path d="M165.384 39.8145L149.855 69.1534C149.297 69.9933 149.576 70.8331 150.47 71.0571L166.557 75.0324C167.45 75.2564 168.623 74.7525 169.182 73.9126L184.71 44.6297C185.269 43.7898 184.99 42.95 184.096 42.726L168.009 38.7507C167.171 38.5268 165.942 38.9747 165.384 39.8145Z" fill="#665DE6"/>
<path d="M169.461 42.3341C169.238 43.062 168.512 43.5099 167.73 43.3419C167.004 43.118 166.557 42.3901 166.724 41.6062C166.948 40.8784 167.674 40.4304 168.456 40.5984C169.238 40.8224 169.685 41.6062 169.461 42.3341Z" fill="#262626"/>
<path d="M97.7959 79.8476C104.499 100.9 121.982 129.399 130.584 130.631C134.662 131.247 141.868 133.15 147.9 129.175C161.027 120.385 174.097 102.86 178.119 92.6693C179.627 88.862 159.742 75.7603 156.446 78.6158C148.738 85.3906 138.907 99.3882 137.734 99.1082C133.377 98.2124 117.961 81.5273 107.236 69.7693C94.221 55.5478 95.1147 71.449 97.7959 79.8476Z" fill="#AD6359"/>
<path d="M182.923 74.1926C182.923 65.682 181.638 63.4984 185.437 56.3317C187.95 51.6285 185.995 48.0451 181.471 51.1246C173.986 56.2197 171.696 67.1938 171.975 71.1691L182.923 74.1926Z" fill="#AD6359"/>
<path d="M175.494 97.5405C175.494 97.5405 181.862 87.3503 182.811 78.2799C183.426 72.0089 183.314 58.2353 168.177 47.1493C164.602 44.5177 157.619 43.2859 161.92 49.7248C164.993 54.316 168.288 56.2757 169.573 59.2432C169.573 59.2432 160.524 58.7392 158.01 62.4346C156.893 64.1143 153.933 68.6495 152.201 72.5688C152.201 72.5688 152.927 73.1847 153.989 73.8566C153.989 73.8566 151.754 77.384 153.207 83.5989L175.494 97.5405Z" fill="#AD6359"/>
<path d="M182.42 72.2329C180.521 69.5454 176.388 63.8904 171.416 60.475C165.886 56.6676 154.212 50.8446 151.475 54.9319C149.464 57.9554 153.709 60.5869 153.709 60.5869C153.709 60.5869 148.403 59.1872 147.118 62.3226C146.001 65.1782 149.408 67.0258 149.408 67.0258C149.408 67.0258 146.057 66.7459 145.498 69.7134C144.828 73.2407 152.034 73.2967 154.436 77.496C154.994 78.3919 182.42 72.2329 182.42 72.2329Z" fill="#AD6359"/>
<path d="M168.4 67.0258C166.222 64.7862 159.91 60.9789 153.821 60.5309C153.709 60.5309 153.598 60.6429 153.709 60.6429C160.301 62.5466 165.998 65.6261 168.4 67.0258C168.344 67.0818 168.4 67.0258 168.4 67.0258Z" fill="#262626"/>
<path d="M164.378 72.5129C162.256 70.7772 155.609 67.1938 149.464 66.9138C149.353 66.9138 149.241 67.0258 149.353 67.0258C156.335 68.7615 161.92 71.2251 164.378 72.5129C164.378 72.5689 164.378 72.5129 164.378 72.5129Z" fill="#262626"/>
<path d="M107.181 106.723L124.274 85.2786C124.274 85.2786 110.7 70.2732 101.987 64.0023C97.1269 60.5309 94.334 64.2263 95.0602 69.6014C97.462 88.5261 107.181 106.723 107.181 106.723Z" fill="#FFBD31"/>
<path d="M107.181 106.723L124.274 85.2786C124.274 85.2786 110.7 70.2732 101.987 64.0023C97.1269 60.5309 94.334 64.2263 95.0602 69.6014C97.462 88.5261 107.181 106.723 107.181 106.723Z" fill="#FFBD31"/>
<path d="M118.854 80.5195C118.016 80.5195 117.346 81.1913 117.346 82.0312C117.346 82.8711 118.016 83.5429 118.854 83.5429C119.692 83.5429 120.362 82.8711 120.362 82.0312C120.307 81.1913 119.636 80.5195 118.854 80.5195ZM118.854 83.263C118.184 83.263 117.625 82.7031 117.625 82.0312C117.625 81.3593 118.184 80.7994 118.854 80.7994C119.525 80.7994 120.083 81.3593 120.083 82.0312C120.083 82.7031 119.525 83.263 118.854 83.263ZM105.057 85.1107C104.22 85.1107 103.549 85.7825 103.549 86.6224C103.549 87.4623 104.22 88.1341 105.057 88.1341C105.895 88.1341 106.566 87.4623 106.566 86.6224C106.51 85.7825 105.839 85.1107 105.057 85.1107ZM105.057 87.8542C104.387 87.8542 103.829 87.2943 103.829 86.6224C103.829 85.9505 104.387 85.3906 105.057 85.3906C105.728 85.3906 106.286 85.9505 106.286 86.6224C106.286 87.2943 105.728 87.8542 105.057 87.8542ZM106.119 73.1288C105.281 73.1288 104.611 73.8006 104.611 74.6405C104.611 75.4803 105.281 76.1522 106.119 76.1522C106.957 76.1522 107.627 75.4803 107.627 74.6405C107.627 73.8006 106.957 73.1288 106.119 73.1288ZM106.119 75.8723C105.448 75.8723 104.89 75.3124 104.89 74.6405C104.89 73.9686 105.448 73.4087 106.119 73.4087C106.789 73.4087 107.348 73.9686 107.348 74.6405C107.348 75.3124 106.789 75.8723 106.119 75.8723ZM95.003 66.8578C95.003 66.9138 95.003 67.0258 95.003 67.1378C95.5057 67.3058 95.8967 67.7537 95.8967 68.3136C95.8967 68.8735 95.5616 69.3214 95.0589 69.4894C95.0589 69.5454 95.0589 69.6014 95.0589 69.6574V69.7134C95.6733 69.5454 96.1202 68.9855 96.1202 68.2576C96.1202 67.6417 95.6733 67.0258 95.003 66.8578ZM115.559 96.2527C115.503 95.4689 114.832 94.853 114.05 94.853C113.213 94.853 112.542 95.5249 112.542 96.3647C112.542 97.2046 113.213 97.8764 114.05 97.8764C114.106 97.8764 114.218 97.8764 114.274 97.8764L114.553 97.5405C114.386 97.5965 114.218 97.6525 114.05 97.6525C113.38 97.6525 112.822 97.0926 112.822 96.4207C112.822 95.7488 113.38 95.1889 114.05 95.1889C114.721 95.1889 115.279 95.7488 115.279 96.4207C115.279 96.4767 115.279 96.5887 115.223 96.6447L115.559 96.2527Z" fill="white"/>
<path opacity="0.1" d="M122.317 87.743L107.18 106.724C107.18 106.724 97.4607 88.4709 95.003 69.6581C94.5561 65.9628 95.6733 63.0513 98.0193 62.7153L122.317 87.743Z" fill="#262626"/>
<path d="M120.307 83.375C117.402 86.4544 109.805 95.0209 105.56 101.236C105.56 101.292 105.672 101.404 105.672 101.348C109.973 96.7006 117.849 86.8464 120.474 83.4869C120.53 83.4869 120.362 83.319 120.307 83.375Z" fill="#262626"/>
<path d="M45.0663 136.902L118.687 136.734L114.609 111.37C114.609 111.37 120.418 104.259 119.357 96.5886C118.128 88.1901 102.991 66.8018 101.706 65.626C96.567 60.8109 91.1488 59.915 85.9541 61.6507C61.8794 76.8241 45.0663 136.902 45.0663 136.902Z" fill="#FFBD31"/>
<path d="M117.179 127.047C116.955 127.327 116.62 127.495 116.229 127.495C115.559 127.495 115 126.935 115 126.264C115 125.592 115.559 125.032 116.229 125.032C116.452 125.032 116.676 125.088 116.899 125.2L116.843 124.864C116.676 124.808 116.452 124.752 116.229 124.752C115.391 124.752 114.721 125.424 114.721 126.264C114.721 127.103 115.391 127.775 116.229 127.775C116.62 127.775 116.955 127.607 117.234 127.383L117.179 127.047ZM102.32 119.321C101.483 119.321 100.812 119.993 100.812 120.832C100.812 121.672 101.483 122.344 102.32 122.344C103.158 122.344 103.829 121.672 103.829 120.832C103.829 119.993 103.158 119.321 102.32 119.321ZM102.32 122.064C101.65 122.064 101.092 121.504 101.092 120.832C101.092 120.161 101.65 119.601 102.32 119.601C102.991 119.601 103.549 120.161 103.549 120.832C103.549 121.504 102.991 122.064 102.32 122.064ZM114.05 94.853C113.213 94.853 112.542 95.5249 112.542 96.3647C112.542 97.2046 113.213 97.8764 114.05 97.8764C114.888 97.8764 115.559 97.2046 115.559 96.3647C115.559 95.5249 114.888 94.853 114.05 94.853ZM114.05 97.5965C113.38 97.5965 112.822 97.0366 112.822 96.3647C112.822 95.6928 113.38 95.1329 114.05 95.1329C114.721 95.1329 115.279 95.6928 115.279 96.3647C115.279 97.0366 114.721 97.5965 114.05 97.5965ZM60.092 132.87C59.2541 132.87 58.5838 133.542 58.5838 134.382C58.5838 135.222 59.2541 135.894 60.092 135.894C60.9299 135.894 61.6001 135.222 61.6001 134.382C61.5443 133.542 60.874 132.87 60.092 132.87ZM60.092 135.614C59.4217 135.614 58.8631 135.054 58.8631 134.382C58.8631 133.71 59.4217 133.15 60.092 133.15C60.7623 133.15 61.3209 133.71 61.3209 134.382C61.3209 135.054 60.7623 135.614 60.092 135.614ZM75.3411 127.943C74.5033 127.943 73.833 128.615 73.833 129.455C73.833 130.295 74.5033 130.967 75.3411 130.967C76.179 130.967 76.8493 130.295 76.8493 129.455C76.8493 128.615 76.1231 127.943 75.3411 127.943ZM75.3411 130.687C74.6708 130.687 74.1123 130.127 74.1123 129.455C74.1123 128.783 74.6708 128.223 75.3411 128.223C76.0114 128.223 76.57 128.783 76.57 129.455C76.57 130.127 76.0114 130.687 75.3411 130.687ZM63.7786 89.9258C63.7227 89.9258 63.611 89.9258 63.5552 89.9258C63.4993 90.0378 63.4435 90.0938 63.3876 90.2058C63.4993 90.1498 63.611 90.1498 63.7786 90.1498C64.4489 90.1498 65.0075 90.7097 65.0075 91.3816C65.0075 92.0535 64.4489 92.6134 63.7786 92.6134C63.22 92.6134 62.7732 92.2214 62.6056 91.7735C62.5497 91.8855 62.4939 91.9975 62.438 92.1094C62.6614 92.6134 63.1642 92.8933 63.7786 92.8933C64.6165 92.8933 65.2868 92.2214 65.2868 91.3816C65.2868 90.5977 64.6165 89.9258 63.7786 89.9258ZM68.0238 101.46C67.1859 101.46 66.5156 102.132 66.5156 102.972C66.5156 103.811 67.1859 104.483 68.0238 104.483C68.8616 104.483 69.5319 103.811 69.5319 102.972C69.4761 102.132 68.8058 101.46 68.0238 101.46ZM68.0238 104.147C67.3535 104.147 66.7949 103.587 66.7949 102.916C66.7949 102.244 67.3535 101.684 68.0238 101.684C68.6941 101.684 69.2526 102.244 69.2526 102.916C69.2526 103.587 68.6941 104.147 68.0238 104.147ZM80.3125 70.1613C79.4746 70.1613 78.8043 70.8332 78.8043 71.673C78.8043 72.5129 79.4746 73.1847 80.3125 73.1847C81.1503 73.1847 81.8206 72.5129 81.8206 71.673C81.8206 70.8332 81.1503 70.1613 80.3125 70.1613ZM80.3125 72.9608C79.6422 72.9608 79.0836 72.4009 79.0836 71.729C79.0836 71.0571 79.6422 70.4972 80.3125 70.4972C80.9828 70.4972 81.5413 71.0571 81.5413 71.729C81.5972 72.4009 81.0386 72.9608 80.3125 72.9608ZM81.8206 96.2527C80.9828 96.2527 80.3125 96.9246 80.3125 97.7645C80.3125 98.6043 80.9828 99.2762 81.8206 99.2762C82.6585 99.2762 83.3288 98.6043 83.3288 97.7645C83.3288 96.9246 82.6585 96.2527 81.8206 96.2527ZM81.8206 98.9963C81.1503 98.9963 80.5917 98.4364 80.5917 97.7645C80.5917 97.0926 81.1503 96.5327 81.8206 96.5327C82.4909 96.5327 83.0495 97.0926 83.0495 97.7645C83.1053 98.4364 82.5468 98.9963 81.8206 98.9963ZM94.612 66.8019C93.7742 66.8019 93.1039 67.4737 93.1039 68.3136C93.1039 69.1534 93.7742 69.8253 94.612 69.8253C95.4499 69.8253 96.1202 69.1534 96.1202 68.3136C96.1202 67.4737 95.4499 66.8019 94.612 66.8019ZM94.612 69.5454C93.9417 69.5454 93.3832 68.9855 93.3832 68.3136C93.3832 67.6417 93.9417 67.0818 94.612 67.0818C95.2823 67.0818 95.8409 67.6417 95.8409 68.3136C95.8409 68.9855 95.2823 69.5454 94.612 69.5454ZM106.119 73.1288C105.281 73.1288 104.611 73.8006 104.611 74.6405C104.611 75.4803 105.281 76.1522 106.119 76.1522C106.957 76.1522 107.627 75.4803 107.627 74.6405C107.627 73.8006 106.957 73.1288 106.119 73.1288ZM106.119 75.8723C105.448 75.8723 104.89 75.3124 104.89 74.6405C104.89 73.9686 105.448 73.4087 106.119 73.4087C106.789 73.4087 107.348 73.9686 107.348 74.6405C107.348 75.3124 106.789 75.8723 106.119 75.8723ZM101.092 131.359C100.254 131.359 99.5833 132.031 99.5833 132.87C99.5833 133.71 100.254 134.382 101.092 134.382C101.929 134.382 102.6 133.71 102.6 132.87C102.544 132.031 101.874 131.359 101.092 131.359ZM101.092 134.102C100.421 134.102 99.8626 133.542 99.8626 132.87C99.8626 132.198 100.421 131.639 101.092 131.639C101.762 131.639 102.32 132.198 102.32 132.87C102.32 133.542 101.762 134.102 101.092 134.102ZM87.3505 121.56C86.5127 121.56 85.8424 122.232 85.8424 123.072C85.8424 123.912 86.5127 124.584 87.3505 124.584C88.1884 124.584 88.8587 123.912 88.8587 123.072C88.8587 122.232 88.1884 121.56 87.3505 121.56ZM87.3505 124.304C86.6802 124.304 86.1217 123.744 86.1217 123.072C86.1217 122.4 86.6802 121.84 87.3505 121.84C88.0208 121.84 88.5794 122.4 88.5794 123.072C88.6353 123.744 88.0767 124.304 87.3505 124.304ZM103.549 103.531C102.711 103.531 102.041 104.203 102.041 105.043C102.041 105.883 102.711 106.555 103.549 106.555C104.387 106.555 105.057 105.883 105.057 105.043C105.057 104.203 104.387 103.531 103.549 103.531ZM103.549 106.275C102.879 106.275 102.32 105.715 102.32 105.043C102.32 104.371 102.879 103.811 103.549 103.811C104.22 103.811 104.778 104.371 104.778 105.043C104.778 105.715 104.22 106.275 103.549 106.275ZM105.057 85.1107C104.22 85.1107 103.549 85.7825 103.549 86.6224C103.549 87.4623 104.22 88.1341 105.057 88.1341C105.895 88.1341 106.566 87.4623 106.566 86.6224C106.51 85.7825 105.839 85.1107 105.057 85.1107ZM105.057 87.8542C104.387 87.8542 103.829 87.2943 103.829 86.6224C103.829 85.9505 104.387 85.3906 105.057 85.3906C105.728 85.3906 106.286 85.9505 106.286 86.6224C106.286 87.2943 105.728 87.8542 105.057 87.8542ZM115.391 109.578C114.553 109.578 113.883 110.25 113.883 111.09C113.883 111.706 114.274 112.266 114.777 112.49L114.721 112.154C114.386 111.93 114.106 111.538 114.106 111.09C114.106 110.418 114.665 109.858 115.335 109.858C115.447 109.858 115.559 109.858 115.614 109.914C115.67 109.858 115.726 109.746 115.782 109.69C115.726 109.578 115.559 109.578 115.391 109.578ZM95.8967 93.5092C95.0589 93.5092 94.3886 94.1811 94.3886 95.0209C94.3886 95.8608 95.0589 96.5327 95.8967 96.5327C96.7346 96.5327 97.4049 95.8608 97.4049 95.0209C97.4049 94.1811 96.6788 93.5092 95.8967 93.5092ZM95.8967 96.2527C95.2265 96.2527 94.6679 95.6928 94.6679 95.0209C94.6679 94.3491 95.2265 93.7892 95.8967 93.7892C96.567 93.7892 97.1256 94.3491 97.1256 95.0209C97.1256 95.6928 96.567 96.2527 95.8967 96.2527ZM57.4108 109.578C56.573 109.578 55.9027 110.25 55.9027 111.09C55.9027 111.93 56.573 112.602 57.4108 112.602C58.2487 112.602 58.919 111.93 58.919 111.09C58.919 110.25 58.2487 109.578 57.4108 109.578ZM57.4108 112.322C56.7405 112.322 56.182 111.762 56.182 111.09C56.182 110.418 56.7405 109.858 57.4108 109.858C58.0811 109.858 58.6397 110.418 58.6397 111.09C58.6397 111.762 58.0811 112.322 57.4108 112.322ZM87.3505 135.39C86.5685 135.39 85.8982 136.006 85.8424 136.846H86.1217C86.1775 136.174 86.6802 135.67 87.3505 135.67C88.0208 135.67 88.5235 136.174 88.5794 136.846H88.8587C88.8028 136.006 88.1884 135.39 87.3505 135.39ZM75.788 111.874C74.9501 111.874 74.2798 112.546 74.2798 113.386C74.2798 114.226 74.9501 114.897 75.788 114.897C76.6259 114.897 77.2962 114.226 77.2962 113.386C77.2962 112.546 76.6259 111.874 75.788 111.874ZM75.788 114.618C75.1177 114.618 74.5591 114.058 74.5591 113.386C74.5591 112.714 75.1177 112.154 75.788 112.154C76.4583 112.154 77.0169 112.714 77.0169 113.386C77.0727 114.114 76.5141 114.618 75.788 114.618ZM76.57 84.3828C75.7321 84.3828 75.0618 85.0547 75.0618 85.8945C75.0618 86.7344 75.7321 87.4063 76.57 87.4063C77.4079 87.4063 78.0782 86.7344 78.0782 85.8945C78.0782 85.0547 77.352 84.3828 76.57 84.3828ZM76.57 87.0703C75.8997 87.0703 75.3411 86.5104 75.3411 85.8385C75.3411 85.1667 75.8997 84.6068 76.57 84.6068C77.2403 84.6068 77.7989 85.1667 77.7989 85.8385C77.7989 86.5664 77.2403 87.0703 76.57 87.0703ZM49.9818 122.568C49.87 122.568 49.7583 122.568 49.7025 122.624C49.6466 122.736 49.6466 122.792 49.5908 122.904C49.7025 122.848 49.8142 122.848 49.9818 122.848C50.652 122.848 51.2106 123.408 51.2106 124.08C51.2106 124.752 50.652 125.312 49.9818 125.312C49.5349 125.312 49.1439 125.088 48.9205 124.752C48.8646 124.864 48.8646 124.976 48.8087 125.032C49.088 125.368 49.479 125.536 49.9259 125.536C50.7638 125.536 51.4341 124.864 51.4341 124.024C51.4899 123.24 50.8196 122.568 49.9818 122.568ZM66.2922 120.049C65.4543 120.049 64.784 120.72 64.784 121.56C64.784 122.4 65.4543 123.072 66.2922 123.072C67.1301 123.072 67.8003 122.4 67.8003 121.56C67.8003 120.72 67.0742 120.049 66.2922 120.049ZM66.2922 122.792C65.6219 122.792 65.0633 122.232 65.0633 121.56C65.0633 120.888 65.6219 120.329 66.2922 120.329C66.9625 120.329 67.5211 120.888 67.5211 121.56C67.5211 122.232 66.9625 122.792 66.2922 122.792ZM90.0875 108.347C89.2497 108.347 88.5794 109.019 88.5794 109.858C88.5794 110.698 89.2497 111.37 90.0875 111.37C90.9254 111.37 91.5957 110.698 91.5957 109.858C91.5957 109.019 90.9254 108.347 90.0875 108.347ZM90.0875 111.034C89.4173 111.034 88.8587 110.474 88.8587 109.802C88.8587 109.13 89.4173 108.571 90.0875 108.571C90.7578 108.571 91.3164 109.13 91.3164 109.802C91.3723 110.53 90.8137 111.034 90.0875 111.034ZM86.2334 61.5948C86.0099 61.8747 85.7307 62.0427 85.3396 62.0987C85.2279 62.1547 85.1162 62.2666 85.0045 62.3226C85.0604 62.3226 85.1721 62.3226 85.2838 62.3226C85.8982 62.3226 86.4009 61.9867 86.6244 61.4268C86.4568 61.4828 86.3451 61.5388 86.2334 61.5948ZM90.8696 78.2799C90.0317 78.2799 89.3614 78.9517 89.3614 79.7916C89.3614 80.6314 90.0317 81.3033 90.8696 81.3033C91.7074 81.3033 92.3777 80.6314 92.3777 79.7916C92.3777 78.9517 91.7074 78.2799 90.8696 78.2799ZM90.8696 81.0234C90.1993 81.0234 89.6407 80.4635 89.6407 79.7916C89.6407 79.1197 90.1993 78.5598 90.8696 78.5598C91.5399 78.5598 92.0984 79.1197 92.0984 79.7916C92.0984 80.4635 91.5399 81.0234 90.8696 81.0234Z" fill="white"/>
<path d="M109.749 75.8723C111.146 78.2238 112.766 80.5194 114.218 82.871C113.604 81.1913 113.045 79.5676 112.375 77.9439C112.375 77.8879 112.431 77.8879 112.431 77.9439C113.436 79.9595 114.386 81.9752 115 84.1028C116.117 85.8945 117.123 87.6862 117.96 89.5899C118.966 91.8855 119.748 94.293 119.971 96.8126C120.195 99.3322 119.748 101.852 118.91 104.259C117.96 107.003 116.62 109.578 115.168 112.154C115 112.49 114.497 112.154 114.665 111.818C116.732 107.339 119.078 102.636 118.854 97.5965C118.631 92.6133 116.341 87.9661 114.05 83.6549C112.654 81.0234 111.258 78.3918 109.582 75.9842C109.526 75.8722 109.694 75.7603 109.749 75.8723Z" fill="#262626"/>
<path d="M102.991 109.41C99.9744 109.746 96.958 110.138 94.0535 110.866C92.6012 111.258 91.1488 111.706 89.7524 112.154C89.0263 112.378 88.3001 112.602 87.6298 112.826C86.9037 113.05 86.1217 113.218 85.3397 113.274C85.2838 113.274 85.2838 113.386 85.3397 113.386C86.0658 113.386 86.792 113.442 87.574 113.33C88.3001 113.274 88.9704 113.106 89.6966 112.938C91.2047 112.546 92.657 112.154 94.1093 111.762C97.0698 110.978 100.086 110.25 103.102 109.69C103.158 109.634 103.158 109.41 102.991 109.41Z" fill="#262626"/>
<path d="M110.42 112.098C107.962 111.818 105.448 111.706 102.935 111.762C101.706 111.762 100.421 111.874 99.1923 111.986C98.5779 112.042 98.0193 112.098 97.4049 112.21C96.7346 112.266 96.1202 112.49 95.4499 112.546C95.394 112.546 95.394 112.658 95.4499 112.658C96.0643 112.602 96.6787 112.658 97.2932 112.658C97.9076 112.658 98.5221 112.602 99.1365 112.602C100.365 112.546 101.65 112.546 102.879 112.49C105.393 112.378 107.85 112.322 110.364 112.322C110.587 112.266 110.587 112.098 110.42 112.098Z" fill="#262626"/>
<path d="M77.1286 68.3136C58.3604 88.0222 35.0678 129.175 39.704 137.406C44.8429 146.532 71.6545 118.649 70.8167 117.305C70.0905 116.185 79.6422 91.2136 86.4568 73.0728C93.2156 54.9319 81.7648 63.4425 77.1286 68.3136Z" fill="#AD6359"/>
<path d="M54.1711 91.9415L81.0945 96.8126C81.0945 96.8126 87.7974 77.664 89.138 67.0818C89.8641 61.1469 86.401 60.8669 81.9882 64.0583C66.6274 75.0884 54.1711 91.9415 54.1711 91.9415Z" fill="#FFBD31"/>
<path d="M63.7786 89.9258C62.9408 89.9258 62.2705 90.5977 62.2705 91.4376C62.2705 92.2774 62.9408 92.9493 63.7786 92.9493C64.6165 92.9493 65.2868 92.2774 65.2868 91.4376C65.2868 90.5977 64.6165 89.9258 63.7786 89.9258ZM63.7786 92.6694C63.1083 92.6694 62.5498 92.1095 62.5498 91.4376C62.5498 90.7657 63.1083 90.2058 63.7786 90.2058C64.4489 90.2058 65.0075 90.7657 65.0075 91.4376C65.0075 92.1095 64.4489 92.6694 63.7786 92.6694ZM80.3125 70.1613C79.4746 70.1613 78.8043 70.8332 78.8043 71.673C78.8043 72.5129 79.4746 73.1848 80.3125 73.1848C81.1504 73.1848 81.8206 72.5129 81.8206 71.673C81.8206 70.8332 81.1504 70.1613 80.3125 70.1613ZM80.3125 72.9608C79.6422 72.9608 79.0836 72.4009 79.0836 71.729C79.0836 71.0571 79.6422 70.4972 80.3125 70.4972C80.9828 70.4972 81.5414 71.0571 81.5414 71.729C81.5972 72.4009 81.0386 72.9608 80.3125 72.9608ZM68.5824 76.0962C68.359 76.0962 68.1355 76.1522 67.9121 76.2642C67.6887 76.4882 67.4652 76.7121 67.2418 76.9361C67.1301 77.1601 67.0742 77.328 67.0742 77.608C67.0742 78.4478 67.7445 79.1197 68.5824 79.1197C69.4203 79.1197 70.0905 78.4478 70.0905 77.608C70.0905 76.7681 69.4203 76.0962 68.5824 76.0962ZM68.5824 78.8398C67.9121 78.8398 67.3535 78.2799 67.3535 77.608C67.3535 76.9361 67.9121 76.3762 68.5824 76.3762C69.2527 76.3762 69.8113 76.9361 69.8113 77.608C69.8113 78.2799 69.2527 78.8398 68.5824 78.8398ZM80.7593 96.7566L81.0945 96.8126L81.1504 96.7566C81.1504 96.7007 81.2062 96.5887 81.2621 96.3647C81.0386 96.4767 80.8711 96.5887 80.7593 96.7566ZM76.57 84.3828C75.7322 84.3828 75.0619 85.0547 75.0619 85.8945C75.0619 86.7344 75.7322 87.4063 76.57 87.4063C77.4079 87.4063 78.0782 86.7344 78.0782 85.8945C78.0782 85.0547 77.352 84.3828 76.57 84.3828ZM76.57 87.0703C75.8997 87.0703 75.3412 86.5104 75.3412 85.8386C75.3412 85.1667 75.8997 84.6068 76.57 84.6068C77.2403 84.6068 77.7989 85.1667 77.7989 85.8386C77.7989 86.5664 77.2403 87.0703 76.57 87.0703ZM85.0604 62.3226C85.1162 62.3226 85.1721 62.3226 85.228 62.3226C85.5631 62.3226 85.8424 62.2107 86.0658 62.0427C85.7865 62.0987 85.4514 62.2107 85.0604 62.3226Z" fill="white"/>
<path d="M80.9269 92.3894C76.8493 91.3256 65.6778 88.6381 58.1929 87.9102C58.137 87.9102 58.137 88.0782 58.137 88.0782C64.2813 89.6459 76.6817 91.9415 80.8152 92.6694C80.9269 92.6694 80.9828 92.3894 80.9269 92.3894Z" fill="#262626"/>
<path d="M77.7989 96.1967C78.916 96.3087 80.0332 96.4207 81.0945 96.5887L80.8711 96.7006C81.6531 93.7332 82.5468 90.8217 83.4964 87.9662C84.446 85.0547 85.4514 82.1992 86.6244 79.3997C85.8983 82.3671 85.0604 85.2786 84.1667 88.1901C83.2729 91.1016 82.2675 94.0131 81.2062 96.8686L81.1503 97.0366L80.9828 96.9806C79.9773 96.7566 78.8602 96.4767 77.7989 96.1967Z" fill="#262626"/>
<path d="M84.8928 85.2226C85.1162 84.6067 85.4514 84.0468 85.7865 83.5429C86.1775 83.039 86.5127 82.5351 87.0154 82.0312C86.9595 82.3671 86.8478 82.6471 86.6802 82.983C86.5685 83.263 86.3451 83.5429 86.1775 83.8229C85.8424 84.3268 85.4514 84.8307 84.8928 85.2226Z" fill="#262626"/>
<path d="M40.2625 138.245C45.3456 143.788 57.0757 143.341 86.7361 145.076C90.8137 145.3 100.31 116.745 95.9526 116.241C90.4227 115.625 68.9734 114.506 67.3535 114.618C54.0594 115.569 36.8552 134.494 40.2625 138.245Z" fill="#AD6359"/>
<path d="M90.0317 115.681C90.0317 115.681 102.544 115.849 109.079 117.977C117.849 120.832 124.217 126.879 126.73 129.623C131.981 135.278 140.806 152.579 136.282 155.994C132.204 159.074 124.049 140.933 124.049 140.933C124.049 140.933 135.388 158.066 129.746 160.865C124.105 163.665 115.894 142.053 115.894 142.053C115.894 142.053 127.177 159.914 120.921 161.929C116.173 163.441 107.627 144.292 107.627 144.292C107.627 144.292 117.178 159.69 112.431 161.481C107.124 163.441 98.131 146.252 98.131 146.252C85.1721 148.66 78.0781 144.516 73.3302 140.933C72.1014 140.037 90.0317 115.681 90.0317 115.681Z" fill="#AD6359"/>
<path d="M120.474 134.774C121.871 136.734 123.323 138.693 124.552 140.821C125.781 142.893 126.954 145.02 127.959 147.204C130.473 152.579 131.199 156.33 131.143 156.106C129.467 150.731 125.166 143.229 123.993 141.157C122.764 139.085 121.647 136.958 120.418 134.83C120.362 134.774 120.474 134.718 120.474 134.774Z" fill="#262626"/>
<path d="M112.877 139.085C114.553 141.661 116.341 144.18 117.905 146.812C119.469 149.444 120.697 152.131 122.094 154.875C122.206 155.099 122.038 155.099 121.926 154.875C120.418 152.187 118.854 149.835 117.346 147.148C115.838 144.46 114.386 141.717 112.822 139.141C112.822 139.029 112.877 139.029 112.877 139.085Z" fill="#262626"/>
<path d="M105.728 141.605C108.521 145.412 110.587 149.779 112.486 154.035C112.598 154.259 112.375 154.203 112.263 153.979C110.085 149.779 108.409 146.532 105.56 141.661C105.56 141.605 105.672 141.493 105.728 141.605Z" fill="#262626"/>
<path d="M56.4054 119.321C58.1928 117.865 63.3317 114.338 68.8058 114.506C68.8616 114.506 68.8616 114.618 68.8058 114.618C64.393 115.121 58.3046 118.145 56.4613 119.433C56.4054 119.433 56.3495 119.321 56.4054 119.321Z" fill="#262626"/>
<path d="M89.6965 61.3148C89.8082 62.6026 94.5003 71.673 100.254 72.2889C102.153 72.5129 103.661 62.2666 103.661 62.2666L103.94 61.5388L107.906 51.3485L96.7904 41.4942L95.1706 40.1505C95.1706 40.1505 94.2769 43.006 93.1597 46.5894C93.1038 46.7573 93.048 46.9253 92.9921 47.0933C92.9363 47.3172 92.8804 47.4852 92.8246 47.6532C92.657 48.1571 92.4894 48.717 92.3218 49.2769C92.2101 49.6688 92.0984 50.1167 91.9867 50.5087C91.875 50.9566 91.7633 51.3485 91.6515 51.7965C90.4227 56.1637 89.6407 60.7549 89.6965 61.3148Z" fill="#AD6359"/>
<path d="M93.1597 46.5894C94.8913 55.4358 101.036 59.9151 103.94 61.5388L107.906 51.3485L96.7904 41.4942L95.1706 40.1505C95.1147 40.1505 94.221 43.006 93.1597 46.5894Z" fill="#262626"/>
<path d="M125.669 39.1986C123.155 58.2353 111.481 58.8512 107.403 58.2913C103.661 57.7874 91.093 55.6038 91.6516 36.4551C92.2101 17.2505 101.818 12.4353 110.364 13.1072C118.91 13.8351 128.182 20.162 125.669 39.1986Z" fill="#AD6359"/>
<path d="M122.932 37.183C122.485 37.015 122.15 36.8471 121.703 36.6791C121.256 36.4551 120.865 36.3432 120.586 35.8952C120.418 35.6713 120.53 35.2234 120.753 35.0554C121.256 34.6635 121.871 34.7754 122.485 34.9994C123.099 35.2234 123.49 35.6153 123.826 36.1752C124.105 36.7351 123.49 37.351 122.932 37.183Z" fill="#262626"/>
<path d="M110.085 33.8796C110.531 33.9356 110.978 33.8796 111.425 33.8796C111.928 33.8796 112.319 33.9356 112.766 33.5997C112.989 33.4317 113.045 33.0397 112.933 32.7598C112.598 32.1999 111.984 32.0319 111.369 32.0319C110.699 32.0319 110.196 32.1999 109.694 32.5918C109.135 33.0397 109.47 33.8236 110.085 33.8796Z" fill="#262626"/>
<path d="M112.095 38.0789C112.095 38.0229 111.984 38.1348 111.984 38.1908C111.816 39.4786 111.369 40.9344 110.14 41.1583C110.085 41.1583 110.085 41.2143 110.14 41.2143C111.593 41.2703 112.151 39.3106 112.095 38.0789Z" fill="#262626"/>
<path d="M111.202 36.5111C109.191 36.0072 108.241 40.0945 110.14 40.5984C111.984 41.1023 112.933 36.959 111.202 36.5111Z" fill="#262626"/>
<path d="M110.364 36.5671C109.973 36.7351 109.526 37.071 109.079 37.015C108.576 36.9591 108.297 36.4551 108.074 35.9512C108.074 35.8952 108.018 35.9512 108.018 36.0072C107.85 36.7911 107.962 37.6869 108.8 37.9669C109.526 38.2468 110.252 37.6869 110.643 36.9031C110.587 36.7351 110.531 36.5111 110.364 36.5671Z" fill="#262626"/>
<path d="M119.692 39.2546C119.692 39.1986 119.804 39.3106 119.748 39.3666C119.413 40.6544 119.245 42.1101 120.307 42.838C120.362 42.838 120.307 42.95 120.307 42.894C118.966 42.3901 119.189 40.4304 119.692 39.2546Z" fill="#262626"/>
<path d="M121.144 38.1908C123.211 38.5268 122.429 42.6701 120.53 42.3341C118.631 42.0542 119.413 37.9109 121.144 38.1908Z" fill="#262626"/>
<path d="M121.926 38.6387C122.206 38.9187 122.485 39.3666 122.82 39.4786C123.267 39.5906 123.714 39.1986 124.049 38.8067C124.105 38.7507 124.105 38.8067 124.105 38.8627C123.993 39.6466 123.546 40.4304 122.764 40.4304C122.038 40.4304 121.647 39.6466 121.647 38.8627C121.703 38.6947 121.815 38.5268 121.926 38.6387Z" fill="#262626"/>
<path d="M110.085 49.0529C110.308 49.4448 110.476 49.8928 110.922 50.0607C111.369 50.2287 111.928 50.1727 112.375 50.1167C112.431 50.1167 112.431 50.1727 112.431 50.1727C111.984 50.5646 111.202 50.6766 110.643 50.4527C110.085 50.1727 109.973 49.6128 109.973 49.0529C109.917 48.9969 110.029 48.9969 110.085 49.0529Z" fill="#262626"/>
<path d="M116.397 45.5815C116.397 45.5815 116.285 47.5412 116.061 48.437C116.061 48.549 115.838 48.493 115.503 48.493C115.503 48.493 115.503 48.493 115.447 48.493C113.827 48.381 112.319 47.5412 111.649 46.0295C111.593 45.9175 111.76 45.8615 111.816 45.9175C112.822 47.0373 114.106 47.5412 115.503 47.8771C115.614 47.6532 115.614 44.5177 115.782 44.5177C116.285 44.5737 117.179 45.1336 117.737 45.4136C118.128 41.3263 117.905 37.183 118.352 33.1517C118.352 32.9837 118.575 32.9837 118.575 33.1517C119.134 37.463 118.798 42.1661 118.463 46.3654C118.407 46.8693 116.676 45.8055 116.397 45.5815Z" fill="#262626"/>
<path d="M96.7905 16.1867C96.1202 17.6984 87.5181 18.7062 83.7198 12.8832C79.9773 7.11625 84.9486 0.0614777 91.8191 3.42089C96.1202 5.54852 98.1869 12.9952 96.7905 16.1867Z" fill="#262626"/>
<path d="M83.6081 4.93261C85.1162 3.2529 87.1271 2.24508 89.1938 1.96513C91.2606 1.62918 93.3273 2.35706 94.612 3.92479C96.0085 5.49251 96.6787 7.56415 97.0697 9.69178C97.2373 10.7556 97.349 11.8194 97.2932 12.9392C97.2932 14.059 97.1815 15.1228 96.7905 16.1867C97.4608 15.2908 97.6842 14.115 97.9076 12.9952C98.0752 11.8754 98.131 10.6996 98.0193 9.5798C97.7959 7.34019 97.1256 4.9886 95.5616 3.14092C94.7796 2.24508 93.7741 1.5172 92.6011 1.12527C91.4281 0.789331 90.1993 0.733341 89.0263 1.01329C86.7361 1.57319 84.7252 3.02894 83.6081 4.93261Z" fill="#262626"/>
<path d="M92.5453 37.295C95.8967 38.6947 98.9131 30.9681 98.9131 30.9681C98.9131 30.9681 114.386 32.4798 118.91 20.7219C118.91 20.7219 119.357 29.1204 126.172 34.6634C126.172 34.6634 129.244 21.2818 119.413 15.9067C119.413 15.9067 107.683 7.67612 97.6283 16.0187C87.574 24.3052 90.311 36.3431 92.5453 37.295Z" fill="#262626"/>
<path d="M119.245 19.826C118.966 21.7297 118.184 23.5214 117.123 25.1451C116.061 26.7688 114.665 28.2246 113.045 29.2884C112.654 29.5683 112.207 29.7923 111.76 30.0162L111.09 30.3522C110.867 30.4642 110.643 30.5202 110.42 30.6321C109.973 30.8001 109.526 30.9681 109.079 31.1361C108.632 31.248 108.13 31.36 107.683 31.472C107.459 31.528 107.236 31.584 106.957 31.64L106.23 31.696L104.778 31.8639C103.829 31.8639 102.879 31.8079 101.929 31.7519C102.879 31.584 103.829 31.584 104.778 31.416L106.175 31.1361L106.845 31.0241C107.068 30.9681 107.292 30.9121 107.515 30.8001C107.962 30.6321 108.409 30.5202 108.856 30.4082C109.303 30.2402 109.694 30.0722 110.14 29.8483L110.755 29.5683L111.369 29.2324C111.76 29.0084 112.207 28.7845 112.542 28.5045C114.106 27.4967 115.447 26.2089 116.564 24.6972C117.123 23.9693 117.625 23.1854 118.072 22.3456C118.519 21.5617 118.91 20.7219 119.245 19.826Z" fill="#262626"/>
<path d="M91.5957 24.6412L90.0317 25.9849L93.83 32.4238L97.2373 29.4003L91.5957 24.6412ZM94.221 30.5202L91.4281 26.3769L91.7633 26.0409L95.394 29.4563L94.221 30.5202Z" fill="#FFBD31"/>
<path d="M93.1039 21.7297L92.1543 23.5774L98.1311 28.1126L100.142 24.0253L93.1039 21.7297ZM97.74 26.2089L93.6066 23.4094L93.83 22.9615L98.4662 24.7532L97.74 26.2089Z" fill="#FFBD31"/>
<path d="M94.4445 38.3028C94.4445 38.3028 91.6516 31.528 88.6911 32.4238C85.7307 33.3197 86.9037 42.4461 89.7524 44.2938C92.6012 46.1414 94.3886 43.5099 94.3886 43.5099L94.4445 38.3028Z" fill="#AD6359"/>
<path d="M89.0821 35.0554C89.0262 35.0554 89.0262 35.1114 89.0262 35.1114C91.0371 36.4551 91.7074 38.7507 92.0426 41.0463C91.5957 40.0945 90.8137 39.4786 89.529 39.9825C89.4731 39.9825 89.4731 40.0945 89.5848 40.0945C90.5344 40.0945 91.1488 40.3745 91.5957 41.2703C91.9308 41.8862 92.0426 42.5581 92.2101 43.23C92.266 43.4539 92.657 43.3979 92.6011 43.174V43.118C93.3273 40.3745 91.9867 36.0072 89.0821 35.0554Z" fill="#262626"/>
</svg>
