<svg width="127" height="18" viewBox="0 0 127 18" fill="none" xmlns="http://www.w3.org/2000/svg">
<path d="M23.822 13V4.6H26.768C27.22 4.6 27.626 4.71 27.986 4.93C28.35 5.15 28.638 5.448 28.85 5.824C29.062 6.196 29.168 6.612 29.168 7.072C29.168 7.476 29.088 7.844 28.928 8.176C28.768 8.508 28.548 8.786 28.268 9.01C27.992 9.23 27.678 9.382 27.326 9.466L29.366 13H28.202L26.204 9.55H24.824V13H23.822ZM24.824 8.542H26.672C26.944 8.542 27.192 8.476 27.416 8.344C27.644 8.208 27.824 8.026 27.956 7.798C28.092 7.566 28.16 7.306 28.16 7.018C28.16 6.726 28.092 6.466 27.956 6.238C27.824 6.006 27.644 5.824 27.416 5.692C27.192 5.556 26.944 5.488 26.672 5.488H24.824V8.542ZM33.0983 13.156C32.5463 13.156 32.0423 13.014 31.5863 12.73C31.1343 12.446 30.7723 12.066 30.5003 11.59C30.2323 11.11 30.0983 10.58 30.0983 10C30.0983 9.56 30.1763 9.15 30.3323 8.77C30.4883 8.386 30.7023 8.05 30.9743 7.762C31.2503 7.47 31.5703 7.242 31.9343 7.078C32.2983 6.914 32.6863 6.832 33.0983 6.832C33.5503 6.832 33.9643 6.924 34.3403 7.108C34.7203 7.288 35.0443 7.54 35.3123 7.864C35.5843 8.188 35.7863 8.564 35.9183 8.992C36.0543 9.42 36.1043 9.878 36.0683 10.366H31.1723C31.2203 10.706 31.3323 11.01 31.5083 11.278C31.6843 11.542 31.9083 11.752 32.1803 11.908C32.4563 12.064 32.7623 12.144 33.0983 12.148C33.4583 12.148 33.7843 12.056 34.0763 11.872C34.3683 11.684 34.6043 11.428 34.7843 11.104L35.8103 11.344C35.5703 11.876 35.2083 12.312 34.7243 12.652C34.2403 12.988 33.6983 13.156 33.0983 13.156ZM31.1423 9.574H35.0543C35.0223 9.238 34.9143 8.932 34.7303 8.656C34.5463 8.376 34.3123 8.152 34.0283 7.984C33.7443 7.816 33.4343 7.732 33.0983 7.732C32.7623 7.732 32.4543 7.814 32.1743 7.978C31.8943 8.142 31.6623 8.364 31.4783 8.644C31.2983 8.92 31.1863 9.23 31.1423 9.574ZM39.9719 13.168C39.3919 13.168 38.8619 13.026 38.3819 12.742C37.9059 12.458 37.5259 12.076 37.2419 11.596C36.9579 11.116 36.8159 10.584 36.8159 10C36.8159 9.564 36.8979 9.156 37.0619 8.776C37.2259 8.396 37.4519 8.062 37.7399 7.774C38.0319 7.482 38.3679 7.254 38.7479 7.09C39.1279 6.926 39.5359 6.844 39.9719 6.844C40.4359 6.844 40.8379 6.954 41.1779 7.174C41.5219 7.39 41.7959 7.674 41.9999 8.026V7H43.0079V16H41.9999V11.986C41.7959 12.338 41.5219 12.624 41.1779 12.844C40.8379 13.06 40.4359 13.168 39.9719 13.168ZM39.9839 7.822C39.5879 7.822 39.2279 7.92 38.9039 8.116C38.5799 8.312 38.3219 8.576 38.1299 8.908C37.9419 9.236 37.8479 9.6 37.8479 10C37.8479 10.408 37.9439 10.778 38.1359 11.11C38.3319 11.438 38.5919 11.7 38.9159 11.896C39.2399 12.088 39.5959 12.184 39.9839 12.184C40.3799 12.184 40.7219 12.086 41.0099 11.89C41.2979 11.694 41.5199 11.43 41.6759 11.098C41.8359 10.766 41.9159 10.4 41.9159 10C41.9159 9.596 41.8359 9.23 41.6759 8.902C41.5199 8.574 41.2959 8.312 41.0039 8.116C40.7159 7.92 40.3759 7.822 39.9839 7.822ZM44.345 10.18V7H45.353V10.156C45.353 10.528 45.431 10.868 45.587 11.176C45.743 11.48 45.955 11.724 46.223 11.908C46.491 12.088 46.793 12.178 47.129 12.178C47.465 12.178 47.761 12.088 48.017 11.908C48.277 11.724 48.479 11.48 48.623 11.176C48.771 10.868 48.845 10.528 48.845 10.156V7H49.853V13H48.845V12.07C48.629 12.406 48.363 12.672 48.047 12.868C47.731 13.064 47.377 13.162 46.985 13.162C46.461 13.162 46.001 13.026 45.605 12.754C45.213 12.482 44.907 12.12 44.687 11.668C44.467 11.216 44.353 10.72 44.345 10.18ZM53.8756 13.156C53.3236 13.156 52.8196 13.014 52.3636 12.73C51.9116 12.446 51.5496 12.066 51.2776 11.59C51.0096 11.11 50.8756 10.58 50.8756 10C50.8756 9.56 50.9536 9.15 51.1096 8.77C51.2656 8.386 51.4796 8.05 51.7516 7.762C52.0276 7.47 52.3476 7.242 52.7116 7.078C53.0756 6.914 53.4636 6.832 53.8756 6.832C54.3276 6.832 54.7416 6.924 55.1176 7.108C55.4976 7.288 55.8216 7.54 56.0896 7.864C56.3616 8.188 56.5636 8.564 56.6956 8.992C56.8316 9.42 56.8816 9.878 56.8456 10.366H51.9496C51.9976 10.706 52.1096 11.01 52.2856 11.278C52.4616 11.542 52.6856 11.752 52.9576 11.908C53.2336 12.064 53.5396 12.144 53.8756 12.148C54.2356 12.148 54.5616 12.056 54.8536 11.872C55.1456 11.684 55.3816 11.428 55.5616 11.104L56.5876 11.344C56.3476 11.876 55.9856 12.312 55.5016 12.652C55.0176 12.988 54.4756 13.156 53.8756 13.156ZM51.9196 9.574H55.8316C55.7996 9.238 55.6916 8.932 55.5076 8.656C55.3236 8.376 55.0896 8.152 54.8056 7.984C54.5216 7.816 54.2116 7.732 53.8756 7.732C53.5396 7.732 53.2316 7.814 52.9516 7.978C52.6716 8.142 52.4396 8.364 52.2556 8.644C52.0756 8.92 51.9636 9.23 51.9196 9.574ZM59.8405 13.114C59.5165 13.102 59.2005 13.042 58.8925 12.934C58.5885 12.822 58.3205 12.672 58.0885 12.484C57.8605 12.292 57.6945 12.072 57.5905 11.824L58.4545 11.452C58.5145 11.588 58.6225 11.716 58.7785 11.836C58.9345 11.956 59.1145 12.052 59.3185 12.124C59.5225 12.196 59.7285 12.232 59.9365 12.232C60.1565 12.232 60.3625 12.198 60.5545 12.13C60.7465 12.062 60.9025 11.962 61.0225 11.83C61.1465 11.694 61.2085 11.532 61.2085 11.344C61.2085 11.144 61.1405 10.988 61.0045 10.876C60.8725 10.76 60.7045 10.67 60.5005 10.606C60.3005 10.538 60.0965 10.474 59.8885 10.414C59.4765 10.31 59.1085 10.186 58.7845 10.042C58.4605 9.894 58.2045 9.708 58.0165 9.484C57.8325 9.256 57.7405 8.966 57.7405 8.614C57.7405 8.242 57.8425 7.92 58.0465 7.648C58.2545 7.376 58.5265 7.166 58.8625 7.018C59.1985 6.87 59.5585 6.796 59.9425 6.796C60.4265 6.796 60.8685 6.9 61.2685 7.108C61.6685 7.316 61.9665 7.598 62.1625 7.954L61.3525 8.428C61.2845 8.284 61.1805 8.158 61.0405 8.05C60.9005 7.938 60.7405 7.85 60.5605 7.786C60.3805 7.722 60.1965 7.688 60.0085 7.684C59.7765 7.676 59.5585 7.706 59.3545 7.774C59.1545 7.842 58.9925 7.946 58.8685 8.086C58.7485 8.222 58.6885 8.392 58.6885 8.596C58.6885 8.796 58.7525 8.948 58.8805 9.052C59.0125 9.156 59.1825 9.24 59.3905 9.304C59.6025 9.364 59.8325 9.434 60.0805 9.514C60.4445 9.63 60.7845 9.764 61.1005 9.916C61.4165 10.068 61.6705 10.258 61.8625 10.486C62.0585 10.714 62.1545 10.996 62.1505 11.332C62.1505 11.7 62.0405 12.022 61.8205 12.298C61.6005 12.57 61.3145 12.778 60.9625 12.922C60.6145 13.066 60.2405 13.13 59.8405 13.114ZM66.3553 8.008H64.9933L64.9873 13H63.9793L63.9853 8.008H62.9533V7H63.9853L63.9793 5.116H64.9873L64.9933 7H66.3553V8.008ZM73.2718 13.156C72.8198 13.156 72.3838 13.086 71.9638 12.946C71.5438 12.802 71.1758 12.598 70.8598 12.334C70.5478 12.07 70.3258 11.756 70.1938 11.392L71.1357 11.038C71.2158 11.262 71.3638 11.458 71.5798 11.626C71.7998 11.79 72.0578 11.918 72.3538 12.01C72.6498 12.102 72.9558 12.148 73.2718 12.148C73.6318 12.148 73.9658 12.09 74.2738 11.974C74.5858 11.854 74.8378 11.688 75.0298 11.476C75.2218 11.264 75.3178 11.016 75.3178 10.732C75.3178 10.44 75.2178 10.202 75.0178 10.018C74.8178 9.83 74.5618 9.682 74.2498 9.574C73.9378 9.462 73.6118 9.376 73.2718 9.316C72.6918 9.22 72.1718 9.084 71.7118 8.908C71.2558 8.728 70.8938 8.478 70.6258 8.158C70.3618 7.838 70.2298 7.416 70.2298 6.892C70.2298 6.404 70.3698 5.978 70.6498 5.614C70.9338 5.25 71.3078 4.968 71.7718 4.768C72.2358 4.568 72.7358 4.468 73.2718 4.468C73.7158 4.468 74.1458 4.538 74.5618 4.678C74.9818 4.814 75.3518 5.014 75.6718 5.278C75.9918 5.542 76.2218 5.864 76.3618 6.244L75.4078 6.592C75.3278 6.364 75.1778 6.168 74.9578 6.004C74.7418 5.836 74.4858 5.708 74.1898 5.62C73.8978 5.528 73.5918 5.482 73.2718 5.482C72.9158 5.478 72.5838 5.536 72.2758 5.656C71.9678 5.776 71.7178 5.942 71.5258 6.154C71.3338 6.366 71.2378 6.612 71.2378 6.892C71.2378 7.228 71.3258 7.486 71.5018 7.666C71.6818 7.842 71.9258 7.974 72.2338 8.062C72.5418 8.15 72.8878 8.228 73.2718 8.296C73.8158 8.388 74.3198 8.534 74.7838 8.734C75.2478 8.93 75.6198 9.192 75.8997 9.52C76.1838 9.848 76.3258 10.252 76.3258 10.732C76.3258 11.22 76.1838 11.646 75.8997 12.01C75.6198 12.374 75.2478 12.656 74.7838 12.856C74.3198 13.056 73.8158 13.156 73.2718 13.156ZM77.6028 10.18V7H78.6108V10.156C78.6108 10.528 78.6888 10.868 78.8448 11.176C79.0008 11.48 79.2128 11.724 79.4808 11.908C79.7488 12.088 80.0508 12.178 80.3868 12.178C80.7228 12.178 81.0188 12.088 81.2748 11.908C81.5348 11.724 81.7368 11.48 81.8808 11.176C82.0288 10.868 82.1028 10.528 82.1028 10.156V7H83.1108V13H82.1028V12.07C81.8868 12.406 81.6208 12.672 81.3048 12.868C80.9888 13.064 80.6348 13.162 80.2428 13.162C79.7188 13.162 79.2588 13.026 78.8628 12.754C78.4708 12.482 78.1648 12.12 77.9448 11.668C77.7248 11.216 77.6108 10.72 77.6028 10.18ZM87.588 6.832C88.172 6.832 88.702 6.974 89.178 7.258C89.658 7.542 90.04 7.924 90.324 8.404C90.608 8.88 90.75 9.41 90.75 9.994C90.75 10.43 90.668 10.84 90.504 11.224C90.34 11.604 90.112 11.94 89.82 12.232C89.532 12.52 89.196 12.746 88.812 12.91C88.432 13.074 88.024 13.156 87.588 13.156C87.124 13.156 86.72 13.048 86.376 12.832C86.036 12.612 85.764 12.326 85.56 11.974V13H84.552V4H85.56V8.014C85.764 7.662 86.036 7.378 86.376 7.162C86.72 6.942 87.124 6.832 87.588 6.832ZM87.576 12.172C87.972 12.172 88.332 12.074 88.656 11.878C88.98 11.682 89.238 11.42 89.43 11.092C89.622 10.76 89.718 10.394 89.718 9.994C89.718 9.586 89.62 9.218 89.424 8.89C89.228 8.558 88.968 8.296 88.644 8.104C88.32 7.908 87.964 7.81 87.576 7.81C87.184 7.81 86.842 7.908 86.55 8.104C86.262 8.3 86.038 8.564 85.878 8.896C85.722 9.228 85.644 9.594 85.644 9.994C85.644 10.398 85.722 10.766 85.878 11.098C86.038 11.426 86.264 11.688 86.556 11.884C86.848 12.076 87.188 12.172 87.576 12.172ZM91.5733 13V7H92.5813V7.87C92.7813 7.578 92.9973 7.344 93.2293 7.168C93.4613 6.988 93.7513 6.898 94.0993 6.898C94.5713 6.898 94.9813 7.012 95.3293 7.24C95.6773 7.468 95.9593 7.78 96.1753 8.176C96.3953 7.776 96.6813 7.464 97.0333 7.24C97.3853 7.012 97.7933 6.898 98.2573 6.898C98.7653 6.898 99.2073 7.028 99.5833 7.288C99.9633 7.548 100.257 7.894 100.465 8.326C100.677 8.758 100.783 9.232 100.783 9.748V13H99.7753V9.748C99.7753 9.408 99.7133 9.1 99.5893 8.824C99.4693 8.544 99.2953 8.322 99.0673 8.158C98.8433 7.99 98.5733 7.906 98.2573 7.906C97.9413 7.906 97.6653 7.99 97.4293 8.158C97.1933 8.322 97.0093 8.544 96.8773 8.824C96.7453 9.1 96.6793 9.408 96.6793 9.748V13H95.6713V9.748C95.6713 9.408 95.6053 9.1 95.4733 8.824C95.3413 8.544 95.1573 8.322 94.9213 8.158C94.6853 7.99 94.4113 7.906 94.0993 7.906C93.8033 7.906 93.5413 7.994 93.3133 8.17C93.0853 8.346 92.9053 8.58 92.7733 8.872C92.6453 9.16 92.5813 9.474 92.5813 9.814V13H91.5733ZM102.048 7H103.056V13H102.048V7ZM102.558 5.902C102.402 5.902 102.27 5.85 102.162 5.746C102.054 5.642 102 5.512 102 5.356C102 5.2 102.054 5.07 102.162 4.966C102.27 4.862 102.402 4.81 102.558 4.81C102.714 4.81 102.846 4.862 102.954 4.966C103.062 5.07 103.116 5.2 103.116 5.356C103.116 5.512 103.062 5.642 102.954 5.746C102.846 5.85 102.714 5.902 102.558 5.902ZM107.933 8.008H106.571L106.565 13H105.557L105.563 8.008H104.531V7H105.563L105.557 5.116H106.565L106.571 7H107.933V8.008ZM112.117 8.008H110.755L110.749 13H109.741L109.747 8.008H108.715V7H109.747L109.741 5.116H110.749L110.755 7H112.117V8.008ZM115.657 13.156C115.105 13.156 114.601 13.014 114.145 12.73C113.693 12.446 113.331 12.066 113.059 11.59C112.791 11.11 112.657 10.58 112.657 10C112.657 9.56 112.735 9.15 112.891 8.77C113.047 8.386 113.261 8.05 113.533 7.762C113.809 7.47 114.129 7.242 114.493 7.078C114.857 6.914 115.245 6.832 115.657 6.832C116.109 6.832 116.523 6.924 116.899 7.108C117.279 7.288 117.603 7.54 117.871 7.864C118.143 8.188 118.345 8.564 118.477 8.992C118.613 9.42 118.663 9.878 118.627 10.366H113.731C113.779 10.706 113.891 11.01 114.067 11.278C114.243 11.542 114.467 11.752 114.739 11.908C115.015 12.064 115.321 12.144 115.657 12.148C116.017 12.148 116.343 12.056 116.635 11.872C116.927 11.684 117.163 11.428 117.343 11.104L118.369 11.344C118.129 11.876 117.767 12.312 117.283 12.652C116.799 12.988 116.257 13.156 115.657 13.156ZM113.701 9.574H117.613C117.581 9.238 117.473 8.932 117.289 8.656C117.105 8.376 116.871 8.152 116.587 7.984C116.303 7.816 115.993 7.732 115.657 7.732C115.321 7.732 115.013 7.814 114.733 7.978C114.453 8.142 114.221 8.364 114.037 8.644C113.857 8.92 113.745 9.23 113.701 9.574ZM124.445 4H125.453V13H124.445V11.98C124.241 12.332 123.967 12.616 123.623 12.832C123.279 13.048 122.875 13.156 122.411 13.156C121.975 13.156 121.567 13.074 121.187 12.91C120.807 12.746 120.471 12.52 120.179 12.232C119.891 11.94 119.665 11.604 119.501 11.224C119.337 10.844 119.255 10.436 119.255 10C119.255 9.564 119.337 9.156 119.501 8.776C119.665 8.392 119.891 8.056 120.179 7.768C120.471 7.476 120.807 7.248 121.187 7.084C121.567 6.92 121.975 6.838 122.411 6.838C122.875 6.838 123.279 6.946 123.623 7.162C123.967 7.378 124.241 7.662 124.445 8.014V4ZM122.423 12.178C122.819 12.178 123.161 12.082 123.449 11.89C123.741 11.694 123.965 11.43 124.121 11.098C124.281 10.766 124.361 10.4 124.361 10C124.361 9.592 124.281 9.224 124.121 8.896C123.961 8.564 123.735 8.302 123.443 8.11C123.155 7.914 122.815 7.816 122.423 7.816C122.027 7.816 121.667 7.914 121.343 8.11C121.023 8.306 120.767 8.57 120.575 8.902C120.383 9.23 120.287 9.596 120.287 10C120.287 10.404 120.385 10.772 120.581 11.104C120.777 11.432 121.037 11.694 121.361 11.89C121.685 12.082 122.039 12.178 122.423 12.178Z" fill="#FB2F2F"/>
<path fill-rule="evenodd" clip-rule="evenodd" d="M4.34546 14.475H13.663C14.6879 14.475 15.3312 13.3673 14.822 12.4772L10.1668 4.33731C9.65433 3.44138 8.36258 3.44073 7.84951 4.33667L3.18651 12.4765C2.67732 13.3666 3.31996 14.475 4.34546 14.475Z" stroke="#FB2F2F" stroke-linecap="round" stroke-linejoin="round"/>
<path d="M9.00238 9.92608V7.91785" stroke="#FB2F2F" stroke-linecap="round" stroke-linejoin="round"/>
<path d="M8.99743 11.9247H9.00391" stroke="#FB2F2F" stroke-linecap="round" stroke-linejoin="round"/>
</svg>
